<svg xmlns="http://www.w3.org/2000/svg" xmlns:xlink="http://www.w3.org/1999/xlink" width="414" zoomAndPan="magnify" viewBox="0 0 310.5 671.999985" height="896" preserveAspectRatio="xMidYMid meet" version="1.0"><defs><filter x="0%" y="0%" width="100%" height="100%" id="9661c24a74"><feColorMatrix values="0 0 0 0 1 0 0 0 0 1 0 0 0 0 1 0 0 0 1 0" color-interpolation-filters="sRGB"/></filter><clipPath id="2694c1cc40"><path d="M 0 0.539062 L 310 0.539062 L 310 671.457031 L 0 671.457031 Z M 0 0.539062 " clip-rule="nonzero"/></clipPath><clipPath id="e28c902e77"><path d="M 51 0.539062 L 310 0.539062 L 310 252 L 51 252 Z M 51 0.539062 " clip-rule="nonzero"/></clipPath><mask id="430a950e97"><g filter="url(#9661c24a74)"><rect x="-31.05" width="372.6" fill="#000000" y="-67.199999" height="806.399982" fill-opacity="0.83"/></g></mask><clipPath id="ea9c486245"><path d="M 1 0.539062 L 259 0.539062 L 259 251 L 1 251 Z M 1 0.539062 " clip-rule="nonzero"/></clipPath><clipPath id="8139596a5c"><rect x="0" width="259" y="0" height="252"/></clipPath><clipPath id="4a89447594"><path d="M 0 452 L 272 452 L 272 671.457031 L 0 671.457031 Z M 0 452 " clip-rule="nonzero"/></clipPath><mask id="8a98955bf6"><g filter="url(#9661c24a74)"><rect x="-31.05" width="372.6" fill="#000000" y="-67.199999" height="806.399982" fill-opacity="0.83"/></g></mask><clipPath id="c984bdd377"><path d="M 0 1 L 271 1 L 271 219.457031 L 0 219.457031 Z M 0 1 " clip-rule="nonzero"/></clipPath><clipPath id="76d8f27d99"><rect x="0" width="272" y="0" height="220"/></clipPath></defs><g clip-path="url(#2694c1cc40)"><path fill="#ffffff" d="M 0 0.539062 L 310 0.539062 L 310 671.460938 L 0 671.460938 Z M 0 0.539062 " fill-opacity="1" fill-rule="nonzero"/><path fill="#eaf4e8" d="M 0 0.539062 L 310 0.539062 L 310 671.460938 L 0 671.460938 Z M 0 0.539062 " fill-opacity="1" fill-rule="nonzero"/></g><g clip-path="url(#e28c902e77)"><g mask="url(#430a950e97)"><g transform="matrix(1, 0, 0, 1, 51, -0.000000000000001776)"><g clip-path="url(#8139596a5c)"><g clip-path="url(#ea9c486245)"><path fill="#edbea4" d="M 33.460938 -73.65625 C 47.769531 -100.84375 80.84375 -102.433594 108.589844 -99.890625 C 139.59375 -97.027344 155.574219 -105.296875 181.730469 -120.484375 C 202.957031 -132.804688 222.59375 -132.40625 245.09375 -120.878906 C 272.285156 -106.886719 266.71875 -81.84375 288.742188 -65.945312 C 309.171875 -51.15625 340.019531 -57.753906 361.722656 -44.082031 C 383.507812 -30.328125 389.390625 -6.554688 388.199219 18.011719 C 386.527344 51.480469 369.277344 82.804688 375.398438 116.753906 C 380.328125 144.101562 408.871094 172.164062 394.636719 201.023438 C 368.003906 255.007812 284.847656 209.769531 242.074219 217.640625 C 195.804688 226.226562 125.683594 277.507812 81.160156 231.953125 C 61.445312 211.835938 72.097656 179.796875 71.699219 155.230469 C 71.144531 121.046875 59.457031 110.710938 35.605469 88.449219 C 12.628906 67.0625 -5.578125 56.410156 3.488281 24.054688 C 8.894531 4.65625 35.289062 0.359375 40.21875 -12.4375 C 46.179688 -28.417969 25.269531 -58.230469 33.460938 -73.65625 Z M 33.460938 -73.65625 " fill-opacity="1" fill-rule="nonzero"/></g></g></g></g></g><g clip-path="url(#4a89447594)"><g mask="url(#8a98955bf6)"><g transform="matrix(1, 0, 0, 1, 0, 452)"><g clip-path="url(#76d8f27d99)"><g clip-path="url(#c984bdd377)"><path fill="#9ad0d3" d="M -37.054688 48.410156 C -25.007812 25.519531 2.835938 24.183594 26.195312 26.324219 C 52.296875 28.734375 65.75 21.773438 87.773438 8.988281 C 105.644531 -1.386719 122.175781 -1.050781 141.117188 8.652344 C 164.007812 20.433594 159.320312 41.515625 177.863281 54.902344 C 195.0625 67.351562 221.03125 61.796875 239.304688 73.308594 C 257.644531 84.890625 262.597656 104.902344 261.59375 125.582031 C 260.1875 153.761719 245.664062 180.132812 250.816406 208.710938 C 254.96875 231.738281 278.996094 255.363281 267.015625 279.660156 C 244.59375 325.105469 174.582031 287.023438 138.574219 293.648438 C 99.617188 300.878906 40.585938 344.046875 3.105469 305.695312 C -13.496094 288.761719 -4.527344 261.789062 -4.859375 241.105469 C -5.328125 212.328125 -15.167969 203.625 -35.25 184.882812 C -54.589844 166.878906 -69.917969 157.910156 -62.289062 130.671875 C -57.738281 114.339844 -35.515625 110.722656 -31.367188 99.949219 C -26.347656 86.496094 -43.949219 61.394531 -37.054688 48.410156 Z M -37.054688 48.410156 " fill-opacity="1" fill-rule="nonzero"/></g></g></g></g></g></svg>