<svg xmlns="http://www.w3.org/2000/svg" xmlns:xlink="http://www.w3.org/1999/xlink" width="414" zoomAndPan="magnify" viewBox="0 0 310.5 671.999985" height="896" preserveAspectRatio="xMidYMid meet" version="1.0"><defs><clipPath id="56af3477c0"><path d="M 0 0.539062 L 310 0.539062 L 310 671.457031 L 0 671.457031 Z M 0 0.539062 " clip-rule="nonzero"/></clipPath><clipPath id="436f72bd68"><path d="M 85 0.539062 L 310 0.539062 L 310 68 L 85 68 Z M 85 0.539062 " clip-rule="nonzero"/></clipPath><clipPath id="af5adeedb7"><path d="M 0 592 L 192 592 L 192 671.457031 L 0 671.457031 Z M 0 592 " clip-rule="nonzero"/></clipPath></defs><g clip-path="url(#56af3477c0)"><path fill="#ffffff" d="M 0 0.539062 L 310 0.539062 L 310 671.460938 L 0 671.460938 Z M 0 0.539062 " fill-opacity="1" fill-rule="nonzero"/><path fill="#f5faf4" d="M 0 0.539062 L 310 0.539062 L 310 671.460938 L 0 671.460938 Z M 0 0.539062 " fill-opacity="1" fill-rule="nonzero"/></g><g clip-path="url(#436f72bd68)"><path fill="#edbea4" d="M 109.328125 -172.546875 C 119.941406 -192.714844 144.472656 -193.894531 165.050781 -192.007812 C 188.046875 -189.882812 199.898438 -196.015625 219.300781 -207.277344 C 235.042969 -216.417969 249.609375 -216.125 266.296875 -207.574219 C 286.460938 -197.195312 282.335938 -178.621094 298.667969 -166.828125 C 313.824219 -155.859375 336.703125 -160.753906 352.800781 -150.613281 C 368.957031 -140.410156 373.320312 -122.78125 372.433594 -104.558594 C 371.195312 -79.734375 358.402344 -56.503906 362.941406 -31.324219 C 366.597656 -11.039062 387.765625 9.777344 377.210938 31.179688 C 357.457031 71.21875 295.777344 37.667969 264.054688 43.503906 C 229.738281 49.875 177.726562 87.90625 144.707031 54.117188 C 130.082031 39.199219 137.984375 15.4375 137.691406 -2.785156 C 137.277344 -28.140625 128.609375 -35.804688 110.917969 -52.316406 C 93.878906 -68.175781 80.375 -76.078125 87.097656 -100.078125 C 91.105469 -114.464844 110.683594 -117.652344 114.339844 -127.144531 C 118.761719 -138.996094 103.253906 -161.109375 109.328125 -172.546875 Z M 109.328125 -172.546875 " fill-opacity="1" fill-rule="nonzero"/></g><g clip-path="url(#af5adeedb7)"><path fill="#9ad0d3" d="M -16.519531 623.964844 C -8.382812 608.503906 10.421875 607.597656 26.203125 609.042969 C 43.832031 610.671875 52.917969 605.96875 67.792969 597.335938 C 79.863281 590.328125 91.03125 590.554688 103.824219 597.109375 C 119.285156 605.066406 116.121094 619.308594 128.644531 628.347656 C 140.261719 636.757812 157.804688 633.003906 170.144531 640.78125 C 182.53125 648.601562 185.878906 662.121094 185.199219 676.089844 C 184.25 695.121094 174.441406 712.933594 177.921875 732.238281 C 180.722656 747.789062 196.953125 763.746094 188.859375 780.160156 C 173.714844 810.855469 126.429688 785.132812 102.105469 789.605469 C 75.792969 794.488281 35.921875 823.648438 10.605469 797.746094 C -0.605469 786.308594 5.449219 768.089844 5.222656 754.117188 C 4.90625 734.679688 -1.738281 728.800781 -15.300781 716.144531 C -28.367188 703.984375 -38.71875 697.925781 -33.5625 679.523438 C -30.488281 668.492188 -15.480469 666.050781 -12.679688 658.773438 C -9.289062 649.6875 -21.175781 632.734375 -16.519531 623.964844 Z M -16.519531 623.964844 " fill-opacity="1" fill-rule="nonzero"/></g></svg>