<svg xmlns="http://www.w3.org/2000/svg" xmlns:xlink="http://www.w3.org/1999/xlink" width="414" zoomAndPan="magnify" viewBox="0 0 310.5 671.999985" height="896" preserveAspectRatio="xMidYMid meet" version="1.0"><defs><filter x="0%" y="0%" width="100%" height="100%" id="f31222f8b3"><feColorMatrix values="0 0 0 0 1 0 0 0 0 1 0 0 0 0 1 0 0 0 1 0" color-interpolation-filters="sRGB"/></filter><clipPath id="1771c4e6e4"><path d="M 62 258.050781 L 173 258.050781 L 173 394 L 62 394 Z M 62 258.050781 " clip-rule="nonzero"/></clipPath><clipPath id="51fe10d119"><path d="M 83 258.050781 L 128 258.050781 L 128 282 L 83 282 Z M 83 258.050781 " clip-rule="nonzero"/></clipPath><clipPath id="44a5e030f5"><path d="M 143 293 L 247.699219 293 L 247.699219 398 L 143 398 Z M 143 293 " clip-rule="nonzero"/></clipPath><clipPath id="e57a60cbe9"><path d="M 106 329 L 161 329 L 161 413.796875 L 106 413.796875 Z M 106 329 " clip-rule="nonzero"/></clipPath><clipPath id="1fa313aff0"><path d="M 106 329 L 162 329 L 162 413.796875 L 106 413.796875 Z M 106 329 " clip-rule="nonzero"/></clipPath><mask id="dd6e0c9a05"><g filter="url(#f31222f8b3)"><rect x="-31.05" width="372.6" fill="#000000" y="-67.199999" height="806.399982" fill-opacity="0.3"/></g></mask><clipPath id="c57d43180e"><path d="M 0.628906 0.289062 L 55 0.289062 L 55 84.796875 L 0.628906 84.796875 Z M 0.628906 0.289062 " clip-rule="nonzero"/></clipPath><clipPath id="6656fb7eb7"><rect x="0" width="56" y="0" height="85"/></clipPath><clipPath id="633549e7e5"><path d="M 107 403 L 128 403 L 128 413.796875 L 107 413.796875 Z M 107 403 " clip-rule="nonzero"/></clipPath><clipPath id="fbec929301"><path d="M 107 407 L 128 407 L 128 413.796875 L 107 413.796875 Z M 107 407 " clip-rule="nonzero"/></clipPath><mask id="e965127cec"><g filter="url(#f31222f8b3)"><rect x="-31.05" width="372.6" fill="#000000" y="-67.199999" height="806.399982" fill-opacity="0.3"/></g></mask><clipPath id="18230249c9"><path d="M 1 0.113281 L 15 0.113281 L 15 8.5 L 1 8.5 Z M 1 0.113281 " clip-rule="nonzero"/></clipPath><clipPath id="d4f4062297"><rect x="0" width="16" y="0" height="9"/></clipPath><mask id="210ca1f52e"><g filter="url(#f31222f8b3)"><rect x="-31.05" width="372.6" fill="#000000" y="-67.199999" height="806.399982" fill-opacity="0.3"/></g></mask><clipPath id="9282792536"><path d="M 0.277344 0.539062 L 29 0.539062 L 29 26.179688 L 0.277344 26.179688 Z M 0.277344 0.539062 " clip-rule="nonzero"/></clipPath><clipPath id="8dc17f2718"><rect x="0" width="30" y="0" height="27"/></clipPath><mask id="0fa26faa9c"><g filter="url(#f31222f8b3)"><rect x="-31.05" width="372.6" fill="#000000" y="-67.199999" height="806.399982" fill-opacity="0.3"/></g></mask><clipPath id="cb508bdf4c"><path d="M 0.414062 0.375 L 117 0.375 L 117 62 L 0.414062 62 Z M 0.414062 0.375 " clip-rule="nonzero"/></clipPath><clipPath id="d9a2898ca2"><rect x="0" width="118" y="0" height="63"/></clipPath><mask id="73e914387c"><g filter="url(#f31222f8b3)"><rect x="-31.05" width="372.6" fill="#000000" y="-67.199999" height="806.399982" fill-opacity="0.3"/></g></mask><clipPath id="6e8daff74d"><path d="M 0.355469 0.449219 L 51.632812 0.449219 L 51.632812 56.519531 L 0.355469 56.519531 Z M 0.355469 0.449219 " clip-rule="nonzero"/></clipPath><clipPath id="5baf099295"><rect x="0" width="52" y="0" height="57"/></clipPath></defs><g clip-path="url(#1771c4e6e4)"><path fill="#edbea4" d="M 172.414062 373.347656 L 147.832031 260.261719 C 147.6875 259.601562 147.296875 259.039062 146.730469 258.671875 C 146.164062 258.308594 145.488281 258.1875 144.832031 258.332031 L 64.445312 275.804688 C 63.085938 276.101562 62.222656 277.445312 62.515625 278.804688 L 87.101562 391.894531 C 87.242188 392.550781 87.632812 393.117188 88.199219 393.480469 C 88.613281 393.746094 89.082031 393.882812 89.558594 393.882812 C 89.738281 393.882812 89.921875 393.863281 90.101562 393.824219 L 170.484375 376.351562 C 171.84375 376.054688 172.710938 374.707031 172.414062 373.347656 Z M 172.414062 373.347656 " fill-opacity="1" fill-rule="nonzero"/></g><path fill="#f5faf4" d="M 142.800781 265.027344 L 142.761719 264.847656 L 69.210938 280.835938 L 69.03125 280.875 L 92.128906 387.128906 L 92.167969 387.308594 L 165.898438 371.28125 Z M 142.800781 265.027344 " fill-opacity="1" fill-rule="nonzero"/><path fill="#edbea4" d="M 89.453125 291.78125 C 91.347656 289.304688 93.507812 287.066406 95.878906 285.136719 C 96.074219 284.980469 96.105469 284.691406 95.945312 284.496094 C 95.785156 284.300781 95.5 284.273438 95.304688 284.429688 C 93.070312 286.246094 91.027344 288.332031 89.203125 290.625 L 89.085938 290.082031 L 77.464844 292.605469 L 79.992188 304.226562 L 91.609375 301.699219 Z M 77.898438 292.886719 L 88.804688 290.515625 L 88.910156 290.992188 C 87.011719 293.433594 85.371094 296.109375 84.027344 298.957031 L 81.914062 296.019531 C 81.765625 295.816406 81.480469 295.769531 81.277344 295.917969 C 81.074219 296.066406 81.027344 296.351562 81.171875 296.554688 L 84.207031 300.765625 L 84.53125 300.042969 C 85.792969 297.234375 87.355469 294.59375 89.164062 292.167969 L 91.175781 301.421875 L 80.269531 303.792969 Z M 77.898438 292.886719 " fill-opacity="1" fill-rule="nonzero"/><path fill="#edbea4" d="M 92.761719 307 C 94.65625 304.523438 96.816406 302.285156 99.1875 300.359375 C 99.382812 300.199219 99.414062 299.910156 99.253906 299.714844 C 99.09375 299.519531 98.808594 299.492188 98.613281 299.648438 C 96.378906 301.464844 94.332031 303.550781 92.511719 305.84375 L 92.367188 305.175781 L 80.746094 307.703125 L 83.273438 319.324219 L 94.890625 316.796875 Z M 81.179688 307.980469 L 92.085938 305.613281 L 92.21875 306.210938 C 90.320312 308.65625 88.679688 311.332031 87.335938 314.175781 L 85.222656 311.242188 C 85.074219 311.035156 84.789062 310.988281 84.585938 311.136719 C 84.382812 311.285156 84.335938 311.570312 84.480469 311.773438 L 87.515625 315.984375 L 87.839844 315.261719 C 89.101562 312.457031 90.664062 309.8125 92.472656 307.386719 L 94.457031 316.515625 L 83.550781 318.886719 Z M 81.179688 307.980469 " fill-opacity="1" fill-rule="nonzero"/><path fill="#edbea4" d="M 96.027344 322.023438 C 97.921875 319.546875 100.082031 317.3125 102.453125 315.382812 C 102.648438 315.222656 102.679688 314.9375 102.519531 314.742188 C 102.359375 314.546875 102.074219 314.515625 101.878906 314.675781 C 99.644531 316.488281 97.601562 318.574219 95.777344 320.867188 L 95.648438 320.273438 L 84.027344 322.800781 L 86.554688 334.417969 L 98.171875 331.894531 Z M 84.464844 323.078125 L 95.367188 320.707031 L 95.484375 321.238281 C 93.585938 323.679688 91.945312 326.355469 90.601562 329.199219 L 88.488281 326.265625 C 88.339844 326.058594 88.054688 326.011719 87.851562 326.160156 C 87.648438 326.308594 87.601562 326.59375 87.746094 326.796875 L 90.78125 331.007812 L 91.105469 330.285156 C 92.367188 327.480469 93.929688 324.835938 95.738281 322.414062 L 97.738281 331.613281 L 86.832031 333.984375 Z M 84.464844 323.078125 " fill-opacity="1" fill-rule="nonzero"/><path fill="#edbea4" d="M 98.929688 335.371094 L 87.308594 337.894531 L 89.835938 349.515625 L 101.457031 346.988281 Z M 87.746094 338.175781 L 98.648438 335.804688 L 101.019531 346.710938 L 90.117188 349.082031 Z M 87.746094 338.175781 " fill-opacity="1" fill-rule="nonzero"/><path fill="#edbea4" d="M 102.210938 350.464844 L 90.589844 352.992188 L 93.117188 364.613281 L 104.738281 362.085938 Z M 91.027344 353.273438 L 101.929688 350.902344 L 104.300781 361.804688 L 93.398438 364.175781 Z M 91.027344 353.273438 " fill-opacity="1" fill-rule="nonzero"/><path fill="#edbea4" d="M 93.875 368.089844 L 96.398438 379.707031 L 108.019531 377.183594 L 105.492188 365.5625 Z M 96.679688 379.273438 L 94.308594 368.367188 L 105.214844 366 L 107.585938 376.902344 Z M 96.679688 379.273438 " fill-opacity="1" fill-rule="nonzero"/><path fill="#edbea4" d="M 93.558594 291.195312 C 93.574219 291.253906 93.625 291.292969 93.683594 291.292969 C 93.695312 291.292969 93.703125 291.292969 93.710938 291.292969 L 138.339844 281.589844 C 138.40625 281.574219 138.453125 281.507812 138.4375 281.4375 C 138.421875 281.371094 138.355469 281.328125 138.285156 281.34375 L 93.65625 291.042969 C 93.589844 291.058594 93.546875 291.125 93.558594 291.195312 Z M 93.558594 291.195312 " fill-opacity="1" fill-rule="nonzero"/><path fill="#edbea4" d="M 132.039062 286.722656 C 132.023438 286.65625 131.957031 286.613281 131.890625 286.625 L 94.335938 294.789062 C 94.265625 294.804688 94.222656 294.871094 94.238281 294.941406 C 94.25 295 94.304688 295.042969 94.363281 295.042969 C 94.371094 295.042969 94.378906 295.039062 94.390625 295.039062 L 131.941406 286.875 C 132.011719 286.859375 132.054688 286.792969 132.039062 286.722656 Z M 132.039062 286.722656 " fill-opacity="1" fill-rule="nonzero"/><path fill="#edbea4" d="M 95.246094 298.824219 C 95.261719 298.882812 95.3125 298.921875 95.371094 298.921875 C 95.378906 298.921875 95.390625 298.921875 95.398438 298.917969 L 139.015625 289.4375 C 139.085938 289.421875 139.128906 289.355469 139.113281 289.285156 C 139.101562 289.21875 139.03125 289.175781 138.964844 289.191406 L 95.34375 298.671875 C 95.277344 298.6875 95.234375 298.753906 95.246094 298.824219 Z M 95.246094 298.824219 " fill-opacity="1" fill-rule="nonzero"/><path fill="#edbea4" d="M 134 298.214844 C 133.984375 298.144531 133.914062 298.101562 133.847656 298.117188 L 96.8125 306.167969 C 96.742188 306.183594 96.699219 306.25 96.714844 306.320312 C 96.726562 306.378906 96.78125 306.417969 96.839844 306.417969 C 96.847656 306.417969 96.855469 306.417969 96.867188 306.414062 L 133.902344 298.363281 C 133.96875 298.351562 134.011719 298.28125 134 298.214844 Z M 134 298.214844 " fill-opacity="1" fill-rule="nonzero"/><path fill="#edbea4" d="M 97.539062 310.160156 C 97.546875 310.160156 97.554688 310.160156 97.566406 310.15625 L 128.730469 303.382812 C 128.800781 303.367188 128.84375 303.300781 128.828125 303.230469 C 128.8125 303.164062 128.742188 303.121094 128.675781 303.136719 L 97.511719 309.910156 C 97.441406 309.925781 97.398438 309.992188 97.414062 310.0625 C 97.425781 310.121094 97.480469 310.160156 97.539062 310.160156 Z M 97.539062 310.160156 " fill-opacity="1" fill-rule="nonzero"/><path fill="#edbea4" d="M 98.519531 314.046875 C 98.53125 314.046875 98.539062 314.046875 98.546875 314.046875 L 134.746094 306.175781 C 134.816406 306.160156 134.859375 306.09375 134.84375 306.023438 C 134.828125 305.957031 134.761719 305.914062 134.691406 305.929688 L 98.492188 313.796875 C 98.425781 313.8125 98.382812 313.878906 98.398438 313.949219 C 98.410156 314.007812 98.460938 314.046875 98.519531 314.046875 Z M 98.519531 314.046875 " fill-opacity="1" fill-rule="nonzero"/><path fill="#edbea4" d="M 99.855469 321.445312 C 99.871094 321.503906 99.921875 321.546875 99.980469 321.546875 C 99.988281 321.546875 100 321.542969 100.007812 321.542969 L 128.785156 315.285156 C 128.855469 315.273438 128.898438 315.203125 128.882812 315.136719 C 128.867188 315.066406 128.800781 315.023438 128.730469 315.039062 L 99.953125 321.292969 C 99.886719 321.308594 99.84375 321.375 99.855469 321.445312 Z M 99.855469 321.445312 " fill-opacity="1" fill-rule="nonzero"/><path fill="#edbea4" d="M 100.703125 325.28125 C 100.714844 325.28125 100.722656 325.28125 100.730469 325.28125 L 124.949219 320.015625 C 125.015625 320 125.058594 319.933594 125.046875 319.863281 C 125.03125 319.796875 124.960938 319.753906 124.894531 319.765625 L 100.679688 325.03125 C 100.609375 325.046875 100.566406 325.113281 100.582031 325.183594 C 100.59375 325.242188 100.644531 325.28125 100.703125 325.28125 Z M 100.703125 325.28125 " fill-opacity="1" fill-rule="nonzero"/><path fill="#edbea4" d="M 101.65625 329.175781 C 101.667969 329.175781 101.675781 329.175781 101.683594 329.171875 L 129.8125 323.058594 C 129.882812 323.042969 129.925781 322.976562 129.910156 322.90625 C 129.894531 322.839844 129.828125 322.796875 129.757812 322.808594 L 101.632812 328.925781 C 101.5625 328.9375 101.519531 329.007812 101.535156 329.074219 C 101.546875 329.136719 101.601562 329.175781 101.65625 329.175781 Z M 101.65625 329.175781 " fill-opacity="1" fill-rule="nonzero"/><path fill="#edbea4" d="M 103.226562 336.324219 C 103.234375 336.324219 103.246094 336.324219 103.253906 336.320312 L 130.980469 330.292969 C 131.050781 330.28125 131.09375 330.210938 131.078125 330.144531 C 131.0625 330.074219 130.996094 330.03125 130.929688 330.046875 L 103.199219 336.074219 C 103.132812 336.089844 103.089844 336.15625 103.101562 336.226562 C 103.117188 336.285156 103.167969 336.324219 103.226562 336.324219 Z M 103.226562 336.324219 " fill-opacity="1" fill-rule="nonzero"/><path fill="#edbea4" d="M 104.140625 340.21875 C 104.152344 340.277344 104.207031 340.316406 104.265625 340.316406 C 104.273438 340.316406 104.28125 340.316406 104.292969 340.316406 L 147.460938 330.929688 C 147.527344 330.914062 147.570312 330.847656 147.558594 330.78125 C 147.542969 330.710938 147.472656 330.667969 147.40625 330.683594 L 104.238281 340.066406 C 104.167969 340.082031 104.125 340.148438 104.140625 340.21875 Z M 104.140625 340.21875 " fill-opacity="1" fill-rule="nonzero"/><path fill="#edbea4" d="M 135.699219 336.945312 C 135.683594 336.878906 135.617188 336.832031 135.546875 336.847656 L 104.898438 343.511719 C 104.832031 343.527344 104.785156 343.59375 104.800781 343.664062 C 104.816406 343.722656 104.867188 343.761719 104.925781 343.761719 C 104.933594 343.761719 104.945312 343.761719 104.953125 343.761719 L 135.601562 337.097656 C 135.671875 337.082031 135.714844 337.015625 135.699219 336.945312 Z M 135.699219 336.945312 " fill-opacity="1" fill-rule="nonzero"/><path fill="#edbea4" d="M 106.609375 351.613281 C 106.617188 351.613281 106.625 351.609375 106.636719 351.609375 L 138.382812 344.707031 C 138.453125 344.691406 138.496094 344.625 138.480469 344.554688 C 138.464844 344.488281 138.398438 344.441406 138.328125 344.460938 L 106.582031 351.359375 C 106.511719 351.375 106.46875 351.441406 106.484375 351.511719 C 106.496094 351.570312 106.550781 351.613281 106.609375 351.613281 Z M 106.609375 351.613281 " fill-opacity="1" fill-rule="nonzero"/><path fill="#edbea4" d="M 107.5 355.433594 C 107.507812 355.433594 107.515625 355.433594 107.527344 355.433594 L 145.625 347.148438 C 145.691406 347.136719 145.734375 347.066406 145.722656 347 C 145.707031 346.929688 145.636719 346.886719 145.570312 346.902344 L 107.472656 355.183594 C 107.402344 355.199219 107.359375 355.265625 107.375 355.335938 C 107.386719 355.394531 107.441406 355.433594 107.5 355.433594 Z M 107.5 355.433594 " fill-opacity="1" fill-rule="nonzero"/><path fill="#edbea4" d="M 141.15625 351.757812 C 141.140625 351.6875 141.074219 351.644531 141.003906 351.660156 L 108.25 358.78125 C 108.179688 358.796875 108.136719 358.863281 108.152344 358.933594 C 108.164062 358.992188 108.21875 359.03125 108.277344 359.03125 C 108.285156 359.03125 108.292969 359.03125 108.304688 359.027344 L 141.058594 351.910156 C 141.128906 351.894531 141.171875 351.824219 141.15625 351.757812 Z M 141.15625 351.757812 " fill-opacity="1" fill-rule="nonzero"/><path fill="#edbea4" d="M 144.222656 359.183594 C 144.207031 359.113281 144.136719 359.070312 144.070312 359.085938 L 109.910156 366.511719 C 109.839844 366.527344 109.796875 366.59375 109.8125 366.664062 C 109.824219 366.722656 109.878906 366.761719 109.9375 366.761719 C 109.945312 366.761719 109.957031 366.761719 109.964844 366.757812 L 144.125 359.332031 C 144.191406 359.320312 144.238281 359.25 144.222656 359.183594 Z M 144.222656 359.183594 " fill-opacity="1" fill-rule="nonzero"/><path fill="#edbea4" d="M 156.453125 360.652344 L 110.941406 370.546875 C 110.871094 370.5625 110.828125 370.628906 110.84375 370.699219 C 110.855469 370.757812 110.910156 370.796875 110.96875 370.796875 C 110.976562 370.796875 110.984375 370.796875 110.996094 370.796875 L 156.507812 360.902344 C 156.578125 360.886719 156.621094 360.820312 156.605469 360.75 C 156.589844 360.683594 156.523438 360.636719 156.453125 360.652344 Z M 156.453125 360.652344 " fill-opacity="1" fill-rule="nonzero"/><path fill="#edbea4" d="M 146.273438 366.324219 L 111.558594 373.871094 C 111.492188 373.886719 111.445312 373.953125 111.460938 374.023438 C 111.476562 374.082031 111.527344 374.121094 111.585938 374.121094 C 111.59375 374.121094 111.605469 374.121094 111.613281 374.121094 L 146.328125 366.574219 C 146.394531 366.558594 146.441406 366.492188 146.425781 366.421875 C 146.410156 366.351562 146.34375 366.308594 146.273438 366.324219 Z M 146.273438 366.324219 " fill-opacity="1" fill-rule="nonzero"/><g clip-path="url(#51fe10d119)"><path fill="#9ad0d3" d="M 127.617188 269.480469 L 126.21875 263.054688 C 125.992188 262.003906 125.367188 261.105469 124.464844 260.523438 C 123.5625 259.945312 122.484375 259.75 121.433594 259.976562 L 110.300781 262.398438 C 108.984375 259.597656 105.863281 258.050781 102.820312 258.710938 C 99.78125 259.371094 97.582031 262.074219 97.546875 265.171875 L 86.414062 267.589844 C 84.246094 268.0625 82.867188 270.207031 83.339844 272.375 L 84.734375 278.800781 C 85.144531 280.679688 86.8125 281.96875 88.664062 281.96875 C 88.945312 281.96875 89.234375 281.9375 89.519531 281.875 L 124.539062 274.261719 C 126.707031 273.792969 128.085938 271.644531 127.617188 269.480469 Z M 127.617188 269.480469 " fill-opacity="1" fill-rule="nonzero"/></g><path fill="#f5faf4" d="M 106.828125 263.738281 C 106.828125 264.121094 106.753906 264.496094 106.605469 264.851562 C 106.457031 265.207031 106.246094 265.523438 105.972656 265.796875 C 105.699219 266.070312 105.386719 266.28125 105.027344 266.425781 C 104.671875 266.574219 104.300781 266.648438 103.914062 266.648438 C 103.527344 266.648438 103.15625 266.574219 102.800781 266.425781 C 102.441406 266.28125 102.128906 266.070312 101.855469 265.796875 C 101.582031 265.523438 101.371094 265.207031 101.222656 264.851562 C 101.074219 264.496094 101.003906 264.121094 101.003906 263.738281 C 101.003906 263.351562 101.074219 262.980469 101.222656 262.621094 C 101.371094 262.265625 101.582031 261.949219 101.855469 261.675781 C 102.128906 261.40625 102.441406 261.195312 102.800781 261.046875 C 103.15625 260.898438 103.527344 260.824219 103.914062 260.824219 C 104.300781 260.824219 104.671875 260.898438 105.027344 261.046875 C 105.386719 261.195312 105.699219 261.40625 105.972656 261.675781 C 106.246094 261.949219 106.457031 262.265625 106.605469 262.621094 C 106.753906 262.980469 106.828125 263.351562 106.828125 263.738281 Z M 106.828125 263.738281 " fill-opacity="1" fill-rule="nonzero"/><g clip-path="url(#44a5e030f5)"><path fill="#9ad0d3" d="M 247.75 345.449219 C 247.75 347.152344 247.667969 348.855469 247.5 350.550781 C 247.332031 352.246094 247.082031 353.933594 246.75 355.605469 C 246.417969 357.277344 246.003906 358.929688 245.507812 360.5625 C 245.015625 362.191406 244.441406 363.796875 243.789062 365.371094 C 243.136719 366.945312 242.40625 368.488281 241.601562 369.992188 C 240.800781 371.496094 239.921875 372.953125 238.976562 374.371094 C 238.027344 375.789062 237.015625 377.160156 235.933594 378.476562 C 234.851562 379.792969 233.707031 381.058594 232.5 382.261719 C 231.296875 383.46875 230.035156 384.613281 228.714844 385.695312 C 227.398438 386.773438 226.03125 387.789062 224.613281 388.738281 C 223.195312 389.683594 221.734375 390.558594 220.230469 391.363281 C 218.726562 392.167969 217.1875 392.894531 215.609375 393.546875 C 214.035156 394.199219 212.429688 394.773438 210.800781 395.269531 C 209.167969 395.765625 207.515625 396.179688 205.84375 396.511719 C 204.171875 396.84375 202.488281 397.09375 200.789062 397.261719 C 199.09375 397.429688 197.390625 397.511719 195.6875 397.511719 C 193.980469 397.511719 192.28125 397.429688 190.582031 397.261719 C 188.886719 397.09375 187.203125 396.84375 185.527344 396.511719 C 183.855469 396.179688 182.203125 395.765625 180.574219 395.269531 C 178.941406 394.773438 177.335938 394.199219 175.761719 393.546875 C 174.1875 392.894531 172.648438 392.167969 171.144531 391.363281 C 169.640625 390.558594 168.179688 389.683594 166.761719 388.738281 C 165.34375 387.789062 163.976562 386.773438 162.65625 385.695312 C 161.339844 384.613281 160.078125 383.46875 158.871094 382.261719 C 157.664062 381.058594 156.523438 379.792969 155.441406 378.476562 C 154.359375 377.160156 153.34375 375.789062 152.398438 374.371094 C 151.449219 372.953125 150.574219 371.496094 149.769531 369.992188 C 148.964844 368.488281 148.238281 366.945312 147.585938 365.371094 C 146.933594 363.796875 146.359375 362.191406 145.863281 360.5625 C 145.371094 358.929688 144.957031 357.277344 144.621094 355.605469 C 144.289062 353.933594 144.039062 352.246094 143.875 350.550781 C 143.707031 348.855469 143.621094 347.152344 143.621094 345.449219 C 143.621094 343.742188 143.707031 342.042969 143.875 340.34375 C 144.039062 338.648438 144.289062 336.960938 144.621094 335.289062 C 144.957031 333.617188 145.371094 331.964844 145.863281 330.335938 C 146.359375 328.703125 146.933594 327.097656 147.585938 325.523438 C 148.238281 323.949219 148.964844 322.410156 149.769531 320.90625 C 150.574219 319.402344 151.449219 317.941406 152.398438 316.523438 C 153.34375 315.105469 154.359375 313.738281 155.441406 312.417969 C 156.523438 311.101562 157.664062 309.839844 158.871094 308.632812 C 160.078125 307.425781 161.339844 306.285156 162.65625 305.203125 C 163.976562 304.121094 165.34375 303.105469 166.761719 302.15625 C 168.179688 301.210938 169.640625 300.335938 171.144531 299.53125 C 172.648438 298.726562 174.1875 298 175.761719 297.347656 C 177.335938 296.695312 178.941406 296.121094 180.574219 295.625 C 182.203125 295.128906 183.855469 294.714844 185.527344 294.382812 C 187.203125 294.050781 188.886719 293.800781 190.582031 293.632812 C 192.28125 293.46875 193.980469 293.382812 195.6875 293.382812 C 197.390625 293.382812 199.09375 293.46875 200.789062 293.632812 C 202.488281 293.800781 204.171875 294.050781 205.84375 294.382812 C 207.515625 294.714844 209.167969 295.128906 210.800781 295.625 C 212.429688 296.121094 214.035156 296.695312 215.609375 297.347656 C 217.1875 298 218.726562 298.726562 220.230469 299.53125 C 221.734375 300.335938 223.195312 301.210938 224.613281 302.15625 C 226.03125 303.105469 227.398438 304.121094 228.714844 305.203125 C 230.035156 306.285156 231.296875 307.425781 232.5 308.632812 C 233.707031 309.839844 234.851562 311.101562 235.933594 312.417969 C 237.015625 313.738281 238.027344 315.105469 238.976562 316.523438 C 239.921875 317.941406 240.800781 319.402344 241.601562 320.90625 C 242.40625 322.410156 243.136719 323.949219 243.789062 325.523438 C 244.441406 327.097656 245.015625 328.703125 245.507812 330.335938 C 246.003906 331.964844 246.417969 333.617188 246.75 335.289062 C 247.082031 336.960938 247.332031 338.648438 247.5 340.34375 C 247.667969 342.042969 247.75 343.742188 247.75 345.449219 Z M 247.75 345.449219 " fill-opacity="1" fill-rule="nonzero"/></g><path fill="#f5faf4" d="M 240.003906 338.519531 C 240.230469 339.96875 240.382812 341.429688 240.46875 342.894531 C 240.550781 344.363281 240.5625 345.828125 240.503906 347.296875 C 240.441406 348.765625 240.308594 350.226562 240.105469 351.679688 C 239.902344 353.136719 239.625 354.578125 239.28125 356.003906 C 238.933594 357.433594 238.519531 358.839844 238.035156 360.226562 C 237.550781 361.613281 237 362.972656 236.382812 364.308594 C 235.765625 365.640625 235.085938 366.9375 234.339844 368.207031 C 233.59375 369.472656 232.789062 370.699219 231.921875 371.882812 C 231.058594 373.070312 230.136719 374.210938 229.15625 375.308594 C 228.179688 376.40625 227.148438 377.449219 226.070312 378.445312 C 224.988281 379.441406 223.863281 380.378906 222.6875 381.265625 C 221.515625 382.148438 220.300781 382.972656 219.046875 383.738281 C 217.792969 384.503906 216.503906 385.207031 215.183594 385.84375 C 213.859375 386.484375 212.507812 387.054688 211.128906 387.5625 C 209.75 388.066406 208.347656 388.503906 206.925781 388.871094 C 205.503906 389.238281 204.066406 389.539062 202.617188 389.765625 C 201.164062 389.992188 199.707031 390.148438 198.238281 390.230469 C 196.773438 390.3125 195.304688 390.324219 193.835938 390.265625 C 192.371094 390.203125 190.910156 390.070312 189.453125 389.867188 C 188 389.664062 186.558594 389.390625 185.128906 389.042969 C 183.703125 388.699219 182.292969 388.28125 180.90625 387.796875 C 179.519531 387.316406 178.160156 386.761719 176.828125 386.144531 C 175.496094 385.527344 174.195312 384.847656 172.929688 384.101562 C 171.664062 383.355469 170.4375 382.550781 169.25 381.683594 C 168.0625 380.820312 166.921875 379.898438 165.824219 378.917969 C 164.730469 377.941406 163.683594 376.910156 162.6875 375.832031 C 161.695312 374.75 160.753906 373.625 159.871094 372.449219 C 158.984375 371.277344 158.160156 370.0625 157.394531 368.808594 C 156.628906 367.554688 155.929688 366.269531 155.289062 364.945312 C 154.652344 363.621094 154.078125 362.269531 153.574219 360.890625 C 153.066406 359.511719 152.632812 358.113281 152.261719 356.6875 C 151.894531 355.265625 151.597656 353.832031 151.371094 352.378906 C 151.144531 350.925781 150.988281 349.46875 150.902344 348 C 150.820312 346.535156 150.808594 345.066406 150.871094 343.601562 C 150.929688 342.132812 151.0625 340.671875 151.265625 339.214844 C 151.46875 337.761719 151.746094 336.320312 152.089844 334.890625 C 152.4375 333.464844 152.851562 332.058594 153.335938 330.671875 C 153.820312 329.285156 154.371094 327.921875 154.988281 326.589844 C 155.605469 325.257812 156.289062 323.957031 157.03125 322.691406 C 157.777344 321.425781 158.582031 320.199219 159.449219 319.011719 C 160.316406 317.828125 161.238281 316.683594 162.214844 315.589844 C 163.191406 314.492188 164.222656 313.445312 165.304688 312.453125 C 166.382812 311.457031 167.511719 310.515625 168.683594 309.632812 C 169.855469 308.75 171.070312 307.921875 172.324219 307.160156 C 173.578125 306.394531 174.867188 305.691406 176.191406 305.054688 C 177.511719 304.414062 178.863281 303.84375 180.242188 303.335938 C 181.621094 302.832031 183.023438 302.394531 184.445312 302.027344 C 185.867188 301.65625 187.304688 301.359375 188.757812 301.132812 C 190.207031 300.90625 191.667969 300.75 193.132812 300.667969 C 194.601562 300.582031 196.066406 300.570312 197.535156 300.632812 C 199.003906 300.691406 200.464844 300.824219 201.917969 301.03125 C 203.375 301.234375 204.816406 301.507812 206.242188 301.855469 C 207.671875 302.199219 209.078125 302.613281 210.464844 303.097656 C 211.851562 303.582031 213.210938 304.132812 214.542969 304.75 C 215.878906 305.367188 217.175781 306.050781 218.441406 306.796875 C 219.707031 307.539062 220.933594 308.347656 222.121094 309.210938 C 223.308594 310.078125 224.449219 311 225.546875 311.976562 C 226.644531 312.957031 227.6875 313.984375 228.683594 315.066406 C 229.679688 316.148438 230.617188 317.273438 231.503906 318.445312 C 232.386719 319.621094 233.210938 320.832031 233.976562 322.085938 C 234.742188 323.339844 235.445312 324.628906 236.082031 325.953125 C 236.722656 327.277344 237.292969 328.625 237.796875 330.007812 C 238.304688 331.386719 238.742188 332.785156 239.109375 334.207031 C 239.476562 335.628906 239.773438 337.066406 240.003906 338.519531 Z M 240.003906 338.519531 " fill-opacity="1" fill-rule="nonzero"/><path fill="#edbea4" d="M 196.945312 309.992188 C 196.945312 310.242188 196.898438 310.484375 196.800781 310.714844 C 196.707031 310.945312 196.570312 311.148438 196.390625 311.328125 C 196.214844 311.503906 196.011719 311.640625 195.78125 311.734375 C 195.546875 311.832031 195.308594 311.878906 195.058594 311.878906 C 194.804688 311.878906 194.566406 311.832031 194.335938 311.734375 C 194.101562 311.640625 193.898438 311.503906 193.722656 311.328125 C 193.542969 311.148438 193.40625 310.945312 193.3125 310.714844 C 193.214844 310.484375 193.167969 310.242188 193.167969 309.992188 C 193.167969 309.742188 193.214844 309.5 193.3125 309.269531 C 193.40625 309.039062 193.542969 308.832031 193.722656 308.65625 C 193.898438 308.480469 194.101562 308.34375 194.335938 308.246094 C 194.566406 308.152344 194.804688 308.101562 195.058594 308.101562 C 195.308594 308.101562 195.546875 308.152344 195.78125 308.246094 C 196.011719 308.34375 196.214844 308.480469 196.390625 308.65625 C 196.570312 308.832031 196.707031 309.039062 196.800781 309.269531 C 196.898438 309.5 196.945312 309.742188 196.945312 309.992188 Z M 196.945312 309.992188 " fill-opacity="1" fill-rule="nonzero"/><path fill="#edbea4" d="M 196.945312 309.992188 C 196.945312 310.242188 196.898438 310.484375 196.800781 310.714844 C 196.707031 310.945312 196.570312 311.148438 196.390625 311.328125 C 196.214844 311.503906 196.011719 311.640625 195.78125 311.734375 C 195.546875 311.832031 195.308594 311.878906 195.058594 311.878906 C 194.804688 311.878906 194.566406 311.832031 194.335938 311.734375 C 194.101562 311.640625 193.898438 311.503906 193.722656 311.328125 C 193.542969 311.148438 193.40625 310.945312 193.3125 310.714844 C 193.214844 310.484375 193.167969 310.242188 193.167969 309.992188 C 193.167969 309.742188 193.214844 309.5 193.3125 309.269531 C 193.40625 309.039062 193.542969 308.832031 193.722656 308.65625 C 193.898438 308.480469 194.101562 308.34375 194.335938 308.246094 C 194.566406 308.152344 194.804688 308.101562 195.058594 308.101562 C 195.308594 308.101562 195.546875 308.152344 195.78125 308.246094 C 196.011719 308.34375 196.214844 308.480469 196.390625 308.65625 C 196.570312 308.832031 196.707031 309.039062 196.800781 309.269531 C 196.898438 309.5 196.945312 309.742188 196.945312 309.992188 Z M 196.945312 309.992188 " fill-opacity="1" fill-rule="nonzero"/><path fill="#edbea4" d="M 179.300781 315.054688 C 179.300781 315.304688 179.253906 315.546875 179.15625 315.777344 C 179.0625 316.011719 178.925781 316.214844 178.75 316.390625 C 178.570312 316.570312 178.367188 316.703125 178.136719 316.800781 C 177.90625 316.898438 177.664062 316.945312 177.414062 316.945312 C 177.164062 316.945312 176.921875 316.898438 176.691406 316.800781 C 176.460938 316.703125 176.253906 316.570312 176.078125 316.390625 C 175.902344 316.214844 175.765625 316.011719 175.667969 315.777344 C 175.574219 315.546875 175.523438 315.304688 175.523438 315.054688 C 175.523438 314.804688 175.574219 314.566406 175.667969 314.332031 C 175.765625 314.101562 175.902344 313.898438 176.078125 313.722656 C 176.253906 313.542969 176.460938 313.40625 176.691406 313.3125 C 176.921875 313.214844 177.164062 313.167969 177.414062 313.167969 C 177.664062 313.167969 177.90625 313.214844 178.136719 313.3125 C 178.367188 313.40625 178.570312 313.542969 178.75 313.722656 C 178.925781 313.898438 179.0625 314.101562 179.15625 314.332031 C 179.253906 314.566406 179.300781 314.804688 179.300781 315.054688 Z M 179.300781 315.054688 " fill-opacity="1" fill-rule="nonzero"/><path fill="#edbea4" d="M 166.554688 328.265625 C 166.554688 328.515625 166.507812 328.753906 166.410156 328.988281 C 166.3125 329.21875 166.179688 329.421875 166 329.601562 C 165.824219 329.777344 165.621094 329.914062 165.386719 330.007812 C 165.15625 330.105469 164.914062 330.152344 164.664062 330.152344 C 164.414062 330.152344 164.175781 330.105469 163.941406 330.007812 C 163.710938 329.914062 163.507812 329.777344 163.332031 329.601562 C 163.152344 329.421875 163.015625 329.21875 162.921875 328.988281 C 162.824219 328.753906 162.777344 328.515625 162.777344 328.265625 C 162.777344 328.015625 162.824219 327.773438 162.921875 327.542969 C 163.015625 327.308594 163.152344 327.105469 163.332031 326.929688 C 163.507812 326.753906 163.710938 326.617188 163.941406 326.519531 C 164.175781 326.425781 164.414062 326.375 164.664062 326.375 C 164.914062 326.375 165.15625 326.425781 165.386719 326.519531 C 165.621094 326.617188 165.824219 326.753906 166 326.929688 C 166.179688 327.105469 166.3125 327.308594 166.410156 327.542969 C 166.507812 327.773438 166.554688 328.015625 166.554688 328.265625 Z M 166.554688 328.265625 " fill-opacity="1" fill-rule="nonzero"/><path fill="#edbea4" d="M 162.117188 346.078125 C 162.117188 346.328125 162.070312 346.570312 161.976562 346.800781 C 161.878906 347.03125 161.742188 347.234375 161.566406 347.414062 C 161.386719 347.589844 161.183594 347.726562 160.953125 347.820312 C 160.722656 347.917969 160.480469 347.964844 160.230469 347.964844 C 159.980469 347.964844 159.738281 347.917969 159.507812 347.820312 C 159.277344 347.726562 159.070312 347.589844 158.894531 347.414062 C 158.71875 347.234375 158.582031 347.03125 158.484375 346.800781 C 158.390625 346.570312 158.339844 346.328125 158.339844 346.078125 C 158.339844 345.828125 158.390625 345.585938 158.484375 345.355469 C 158.582031 345.125 158.71875 344.917969 158.894531 344.742188 C 159.070312 344.566406 159.277344 344.429688 159.507812 344.332031 C 159.738281 344.238281 159.980469 344.1875 160.230469 344.1875 C 160.480469 344.1875 160.722656 344.238281 160.953125 344.332031 C 161.183594 344.429688 161.386719 344.566406 161.566406 344.742188 C 161.742188 344.917969 161.878906 345.125 161.976562 345.355469 C 162.070312 345.585938 162.117188 345.828125 162.117188 346.078125 Z M 162.117188 346.078125 " fill-opacity="1" fill-rule="nonzero"/><path fill="#edbea4" d="M 167.183594 363.722656 C 167.183594 363.972656 167.136719 364.210938 167.039062 364.445312 C 166.945312 364.675781 166.808594 364.878906 166.628906 365.054688 C 166.453125 365.234375 166.25 365.371094 166.019531 365.464844 C 165.785156 365.5625 165.546875 365.609375 165.296875 365.609375 C 165.042969 365.609375 164.804688 365.5625 164.574219 365.464844 C 164.339844 365.371094 164.136719 365.234375 163.960938 365.054688 C 163.78125 364.878906 163.644531 364.675781 163.550781 364.445312 C 163.453125 364.210938 163.40625 363.972656 163.40625 363.722656 C 163.40625 363.46875 163.453125 363.230469 163.550781 363 C 163.644531 362.765625 163.78125 362.5625 163.960938 362.386719 C 164.136719 362.207031 164.339844 362.070312 164.574219 361.976562 C 164.804688 361.878906 165.042969 361.832031 165.296875 361.832031 C 165.546875 361.832031 165.785156 361.878906 166.019531 361.976562 C 166.25 362.070312 166.453125 362.207031 166.628906 362.386719 C 166.808594 362.5625 166.945312 362.765625 167.039062 363 C 167.136719 363.230469 167.183594 363.46875 167.183594 363.722656 Z M 167.183594 363.722656 " fill-opacity="1" fill-rule="nonzero"/><path fill="#edbea4" d="M 180.390625 376.46875 C 180.390625 376.71875 180.34375 376.960938 180.246094 377.191406 C 180.152344 377.421875 180.015625 377.625 179.839844 377.804688 C 179.660156 377.980469 179.457031 378.117188 179.226562 378.214844 C 178.996094 378.308594 178.753906 378.355469 178.503906 378.355469 C 178.253906 378.355469 178.011719 378.308594 177.78125 378.214844 C 177.550781 378.117188 177.34375 377.980469 177.167969 377.804688 C 176.992188 377.625 176.855469 377.421875 176.757812 377.191406 C 176.664062 376.960938 176.613281 376.71875 176.613281 376.46875 C 176.613281 376.21875 176.664062 375.976562 176.757812 375.746094 C 176.855469 375.515625 176.992188 375.308594 177.167969 375.132812 C 177.34375 374.957031 177.550781 374.820312 177.78125 374.722656 C 178.011719 374.628906 178.253906 374.582031 178.503906 374.582031 C 178.753906 374.582031 178.996094 374.628906 179.226562 374.722656 C 179.457031 374.820312 179.660156 374.957031 179.839844 375.132812 C 180.015625 375.308594 180.152344 375.515625 180.246094 375.746094 C 180.34375 375.976562 180.390625 376.21875 180.390625 376.46875 Z M 180.390625 376.46875 " fill-opacity="1" fill-rule="nonzero"/><path fill="#edbea4" d="M 198.203125 380.902344 C 198.203125 381.15625 198.15625 381.394531 198.058594 381.625 C 197.964844 381.859375 197.828125 382.0625 197.652344 382.238281 C 197.472656 382.417969 197.269531 382.550781 197.039062 382.648438 C 196.808594 382.746094 196.566406 382.792969 196.316406 382.792969 C 196.066406 382.792969 195.824219 382.746094 195.59375 382.648438 C 195.363281 382.550781 195.15625 382.417969 194.980469 382.238281 C 194.804688 382.0625 194.667969 381.859375 194.570312 381.625 C 194.476562 381.394531 194.425781 381.15625 194.425781 380.902344 C 194.425781 380.652344 194.476562 380.414062 194.570312 380.179688 C 194.667969 379.949219 194.804688 379.746094 194.980469 379.570312 C 195.15625 379.390625 195.363281 379.253906 195.59375 379.160156 C 195.824219 379.0625 196.066406 379.015625 196.316406 379.015625 C 196.566406 379.015625 196.808594 379.0625 197.039062 379.160156 C 197.269531 379.253906 197.472656 379.390625 197.652344 379.570312 C 197.828125 379.746094 197.964844 379.949219 198.058594 380.179688 C 198.15625 380.414062 198.203125 380.652344 198.203125 380.902344 Z M 198.203125 380.902344 " fill-opacity="1" fill-rule="nonzero"/><path fill="#edbea4" d="M 215.847656 375.839844 C 215.847656 376.089844 215.800781 376.332031 215.703125 376.5625 C 215.609375 376.792969 215.472656 376.996094 215.296875 377.175781 C 215.117188 377.351562 214.914062 377.488281 214.683594 377.582031 C 214.449219 377.679688 214.210938 377.726562 213.960938 377.726562 C 213.710938 377.726562 213.46875 377.679688 213.238281 377.582031 C 213.003906 377.488281 212.800781 377.351562 212.625 377.175781 C 212.449219 376.996094 212.3125 376.792969 212.214844 376.5625 C 212.121094 376.332031 212.070312 376.089844 212.070312 375.839844 C 212.070312 375.589844 212.121094 375.347656 212.214844 375.117188 C 212.3125 374.886719 212.449219 374.679688 212.625 374.503906 C 212.800781 374.328125 213.003906 374.191406 213.238281 374.09375 C 213.46875 374 213.710938 373.949219 213.960938 373.949219 C 214.210938 373.949219 214.449219 374 214.683594 374.09375 C 214.914062 374.191406 215.117188 374.328125 215.296875 374.503906 C 215.472656 374.679688 215.609375 374.886719 215.703125 375.117188 C 215.800781 375.347656 215.847656 375.589844 215.847656 375.839844 Z M 215.847656 375.839844 " fill-opacity="1" fill-rule="nonzero"/><path fill="#edbea4" d="M 228.59375 362.628906 C 228.59375 362.882812 228.546875 363.121094 228.453125 363.351562 C 228.355469 363.585938 228.21875 363.789062 228.042969 363.964844 C 227.863281 364.144531 227.660156 364.28125 227.429688 364.375 C 227.199219 364.472656 226.957031 364.519531 226.707031 364.519531 C 226.457031 364.519531 226.214844 364.472656 225.984375 364.375 C 225.753906 364.28125 225.546875 364.144531 225.371094 363.964844 C 225.195312 363.789062 225.058594 363.585938 224.960938 363.351562 C 224.867188 363.121094 224.820312 362.882812 224.820312 362.628906 C 224.820312 362.378906 224.867188 362.140625 224.960938 361.90625 C 225.058594 361.675781 225.195312 361.472656 225.371094 361.296875 C 225.546875 361.117188 225.753906 360.980469 225.984375 360.886719 C 226.214844 360.789062 226.457031 360.742188 226.707031 360.742188 C 226.957031 360.742188 227.199219 360.789062 227.429688 360.886719 C 227.660156 360.980469 227.863281 361.117188 228.042969 361.296875 C 228.21875 361.472656 228.355469 361.675781 228.453125 361.90625 C 228.546875 362.140625 228.59375 362.378906 228.59375 362.628906 Z M 228.59375 362.628906 " fill-opacity="1" fill-rule="nonzero"/><path fill="#edbea4" d="M 233.03125 344.820312 C 233.03125 345.070312 232.984375 345.308594 232.886719 345.542969 C 232.792969 345.773438 232.65625 345.976562 232.476562 346.152344 C 232.300781 346.332031 232.097656 346.46875 231.867188 346.5625 C 231.632812 346.660156 231.394531 346.707031 231.144531 346.707031 C 230.890625 346.707031 230.652344 346.660156 230.421875 346.5625 C 230.1875 346.46875 229.984375 346.332031 229.808594 346.152344 C 229.628906 345.976562 229.492188 345.773438 229.398438 345.542969 C 229.300781 345.308594 229.253906 345.070312 229.253906 344.820312 C 229.253906 344.566406 229.300781 344.328125 229.398438 344.097656 C 229.492188 343.863281 229.628906 343.660156 229.808594 343.484375 C 229.984375 343.304688 230.1875 343.167969 230.421875 343.074219 C 230.652344 342.976562 230.890625 342.929688 231.144531 342.929688 C 231.394531 342.929688 231.632812 342.976562 231.867188 343.074219 C 232.097656 343.167969 232.300781 343.304688 232.476562 343.484375 C 232.65625 343.660156 232.792969 343.863281 232.886719 344.097656 C 232.984375 344.328125 233.03125 344.566406 233.03125 344.820312 Z M 233.03125 344.820312 " fill-opacity="1" fill-rule="nonzero"/><path fill="#edbea4" d="M 227.964844 327.175781 C 227.964844 327.425781 227.917969 327.664062 227.824219 327.898438 C 227.726562 328.128906 227.589844 328.332031 227.414062 328.507812 C 227.234375 328.6875 227.03125 328.824219 226.800781 328.917969 C 226.570312 329.015625 226.328125 329.0625 226.078125 329.0625 C 225.828125 329.0625 225.585938 329.015625 225.355469 328.917969 C 225.125 328.824219 224.917969 328.6875 224.742188 328.507812 C 224.566406 328.332031 224.429688 328.128906 224.332031 327.898438 C 224.238281 327.664062 224.191406 327.425781 224.191406 327.175781 C 224.191406 326.925781 224.238281 326.683594 224.332031 326.453125 C 224.429688 326.21875 224.566406 326.015625 224.742188 325.839844 C 224.917969 325.660156 225.125 325.527344 225.355469 325.429688 C 225.585938 325.332031 225.828125 325.285156 226.078125 325.285156 C 226.328125 325.285156 226.570312 325.332031 226.800781 325.429688 C 227.03125 325.527344 227.234375 325.660156 227.414062 325.839844 C 227.589844 326.015625 227.726562 326.21875 227.824219 326.453125 C 227.917969 326.683594 227.964844 326.925781 227.964844 327.175781 Z M 227.964844 327.175781 " fill-opacity="1" fill-rule="nonzero"/><path fill="#edbea4" d="M 214.757812 314.425781 C 214.757812 314.675781 214.710938 314.917969 214.613281 315.148438 C 214.519531 315.382812 214.382812 315.585938 214.203125 315.761719 C 214.027344 315.9375 213.824219 316.074219 213.59375 316.171875 C 213.359375 316.265625 213.121094 316.316406 212.871094 316.316406 C 212.621094 316.316406 212.378906 316.265625 212.148438 316.171875 C 211.914062 316.074219 211.710938 315.9375 211.535156 315.761719 C 211.355469 315.585938 211.222656 315.382812 211.125 315.148438 C 211.027344 314.917969 210.980469 314.675781 210.980469 314.425781 C 210.980469 314.175781 211.027344 313.9375 211.125 313.703125 C 211.222656 313.472656 211.355469 313.269531 211.535156 313.089844 C 211.710938 312.914062 211.914062 312.777344 212.148438 312.683594 C 212.378906 312.585938 212.621094 312.539062 212.871094 312.539062 C 213.121094 312.539062 213.359375 312.585938 213.59375 312.683594 C 213.824219 312.777344 214.027344 312.914062 214.203125 313.089844 C 214.382812 313.269531 214.519531 313.472656 214.613281 313.703125 C 214.710938 313.9375 214.757812 314.175781 214.757812 314.425781 Z M 214.757812 314.425781 " fill-opacity="1" fill-rule="nonzero"/><path fill="#9ad0d3" d="M 205.1875 345.207031 C 205.1875 345.773438 205.128906 346.328125 205.019531 346.882812 C 204.910156 347.433594 204.75 347.96875 204.53125 348.488281 C 204.316406 349.007812 204.054688 349.503906 203.742188 349.972656 C 203.429688 350.4375 203.074219 350.871094 202.675781 351.269531 C 202.277344 351.667969 201.84375 352.023438 201.375 352.335938 C 200.90625 352.648438 200.414062 352.914062 199.894531 353.128906 C 199.375 353.34375 198.835938 353.507812 198.285156 353.617188 C 197.734375 353.726562 197.175781 353.78125 196.613281 353.78125 C 196.050781 353.78125 195.492188 353.726562 194.941406 353.617188 C 194.386719 353.507812 193.851562 353.34375 193.332031 353.128906 C 192.8125 352.914062 192.316406 352.648438 191.851562 352.335938 C 191.382812 352.023438 190.949219 351.667969 190.550781 351.269531 C 190.152344 350.871094 189.796875 350.4375 189.484375 349.972656 C 189.171875 349.503906 188.90625 349.007812 188.691406 348.488281 C 188.476562 347.96875 188.316406 347.433594 188.203125 346.882812 C 188.09375 346.328125 188.039062 345.773438 188.039062 345.207031 C 188.039062 344.644531 188.09375 344.089844 188.203125 343.535156 C 188.316406 342.984375 188.476562 342.449219 188.691406 341.929688 C 188.90625 341.40625 189.171875 340.914062 189.484375 340.445312 C 189.796875 339.976562 190.152344 339.542969 190.550781 339.148438 C 190.949219 338.75 191.382812 338.394531 191.851562 338.082031 C 192.316406 337.769531 192.8125 337.503906 193.332031 337.289062 C 193.851562 337.074219 194.386719 336.910156 194.941406 336.800781 C 195.492188 336.691406 196.050781 336.636719 196.613281 336.636719 C 197.175781 336.636719 197.734375 336.691406 198.285156 336.800781 C 198.835938 336.910156 199.375 337.074219 199.894531 337.289062 C 200.414062 337.503906 200.90625 337.769531 201.375 338.082031 C 201.84375 338.394531 202.277344 338.75 202.675781 339.148438 C 203.074219 339.542969 203.429688 339.976562 203.742188 340.445312 C 204.054688 340.914062 204.316406 341.40625 204.53125 341.929688 C 204.75 342.449219 204.910156 342.984375 205.019531 343.535156 C 205.128906 344.089844 205.1875 344.644531 205.1875 345.207031 Z M 205.1875 345.207031 " fill-opacity="1" fill-rule="nonzero"/><path fill="#edbea4" d="M 196.445312 349.007812 L 190.539062 343.105469 C 190.117188 342.683594 190.117188 342 190.539062 341.574219 C 190.960938 341.152344 191.648438 341.152344 192.070312 341.574219 L 196.445312 345.949219 L 214.097656 328.296875 C 214.519531 327.875 215.203125 327.875 215.625 328.296875 C 216.046875 328.71875 216.046875 329.40625 215.625 329.828125 Z M 196.445312 349.007812 " fill-opacity="1" fill-rule="nonzero"/><path fill="#231f20" d="M 142.203125 301.589844 C 141.390625 301.589844 140.609375 301.75 139.886719 302.046875 C 139.070312 302.378906 138.210938 302.605469 137.328125 302.585938 C 137.042969 302.578125 136.753906 302.601562 136.453125 302.664062 C 134.777344 303.007812 133.476562 304.429688 133.308594 306.132812 C 133.128906 307.957031 134.191406 309.554688 135.75 310.191406 C 136.367188 313.445312 139.023438 315.894531 142.203125 315.894531 C 145.84375 315.894531 148.796875 312.691406 148.796875 308.742188 C 148.796875 304.792969 145.84375 301.589844 142.203125 301.589844 Z M 142.203125 301.589844 " fill-opacity="1" fill-rule="nonzero"/><path fill="#f8b6bf" d="M 145.757812 314.582031 C 144.898438 314.128906 144.613281 313.097656 145.003906 312.277344 C 145.777344 311.875 146.304688 311.066406 146.304688 310.132812 C 146.304688 308.796875 145.21875 307.710938 143.882812 307.710938 C 142.542969 307.710938 141.460938 308.796875 141.460938 310.132812 C 141.460938 310.179688 141.464844 310.226562 141.46875 310.269531 L 141.386719 310.335938 C 140.238281 310.632812 139.207031 309.5625 139.550781 308.425781 L 139.765625 307.722656 C 139.558594 305.921875 138.453125 305.1875 136.425781 305.539062 L 136.199219 305.777344 C 135.480469 306.53125 135.085938 307.542969 135.101562 308.585938 L 135.128906 310.371094 L 133.6875 312.097656 C 133.359375 312.484375 133.527344 313.078125 134.007812 313.242188 L 134.859375 313.53125 L 135.507812 316.730469 C 135.695312 317.644531 136.558594 318.253906 137.484375 318.121094 L 139.023438 317.894531 L 139.785156 319.464844 L 146.304688 316.46875 L 146.007812 315.605469 Z M 145.757812 314.582031 " fill-opacity="1" fill-rule="nonzero"/><path fill="#f8b6bf" d="M 122.457031 342.296875 L 114.214844 341.792969 C 114.015625 341.78125 113.8125 341.8125 113.625 341.886719 L 105.617188 344.949219 C 105.390625 345.035156 105.195312 345.191406 105.054688 345.398438 L 103.761719 347.316406 C 103.710938 347.394531 103.761719 347.503906 103.847656 347.507812 C 104.300781 347.519531 104.742188 347.328125 105.054688 346.976562 L 106.378906 345.507812 L 105.386719 347.199219 C 105.21875 347.484375 105.398438 347.855469 105.710938 347.871094 L 107.226562 347.929688 C 107.582031 347.945312 107.925781 347.78125 108.160156 347.488281 L 108.785156 346.695312 C 109.058594 346.34375 109.480469 346.167969 109.902344 346.230469 L 112.410156 346.589844 C 113.121094 346.691406 113.824219 346.332031 114.199219 345.671875 L 114.945312 344.367188 L 122.457031 346.132812 " fill-opacity="1" fill-rule="nonzero"/><path fill="#9ad0d3" d="M 137.332031 326.652344 L 130.613281 338.300781 C 130.101562 339.1875 129.136719 339.773438 128.054688 339.851562 L 115.320312 340.769531 L 115.03125 346.898438 L 130.726562 347.457031 C 132.066406 347.503906 133.335938 346.902344 134.074219 345.867188 L 145.265625 330.199219 L 145.554688 326.539062 C 145.660156 325.191406 144.578125 324.015625 143.117188 323.894531 L 142.886719 323.875 C 140.601562 323.683594 138.410156 324.78125 137.332031 326.652344 Z M 137.332031 326.652344 " fill-opacity="1" fill-rule="nonzero"/><g clip-path="url(#e57a60cbe9)"><path fill="#f5faf4" d="M 160.46875 406.640625 L 151.980469 372.519531 C 155.0625 370.328125 157.1875 366.929688 157.621094 363.011719 L 160.1875 339.757812 C 160.71875 334.9375 157.042969 330.644531 152.070312 330.277344 L 144.976562 329.753906 L 136.046875 352.234375 L 115.074219 364.003906 L 116.703125 373.890625 C 116.6875 373.886719 116.671875 373.878906 116.65625 373.875 L 113.710938 373.324219 C 112.96875 373.1875 112.257812 373.6875 112.140625 374.433594 L 106.816406 408.070312 C 106.6875 408.882812 107.316406 409.621094 108.140625 409.621094 L 108.410156 409.621094 C 109.027344 409.621094 109.566406 409.195312 109.710938 408.59375 L 117.417969 376.726562 L 132.019531 375.863281 L 139.773438 412.761719 C 139.917969 413.453125 140.457031 413.941406 141.074219 413.941406 L 141.34375 413.941406 C 142.167969 413.941406 142.796875 413.09375 142.667969 412.15625 L 137.628906 375.527344 L 144.585938 375.117188 C 145.410156 375.066406 146.21875 374.945312 147 374.765625 L 157.65625 407.550781 C 157.875 408.222656 158.460938 408.648438 159.078125 408.582031 L 159.34375 408.554688 C 160.164062 408.464844 160.699219 407.558594 160.46875 406.640625 Z M 160.46875 406.640625 " fill-opacity="1" fill-rule="nonzero"/><path fill="#edbea4" d="M 160.46875 406.640625 L 151.980469 372.519531 C 155.0625 370.328125 157.1875 366.929688 157.621094 363.011719 L 160.1875 339.757812 C 160.71875 334.9375 157.042969 330.644531 152.070312 330.277344 L 144.976562 329.753906 L 136.046875 352.234375 L 115.074219 364.003906 L 116.703125 373.890625 C 116.6875 373.886719 116.671875 373.878906 116.65625 373.875 L 113.710938 373.324219 C 112.96875 373.1875 112.257812 373.6875 112.140625 374.433594 L 106.816406 408.070312 C 106.6875 408.882812 107.316406 409.621094 108.140625 409.621094 L 108.410156 409.621094 C 109.027344 409.621094 109.566406 409.195312 109.710938 408.59375 L 117.417969 376.726562 L 132.019531 375.863281 L 139.773438 412.761719 C 139.917969 413.453125 140.457031 413.941406 141.074219 413.941406 L 141.34375 413.941406 C 142.167969 413.941406 142.796875 413.09375 142.667969 412.15625 L 137.628906 375.527344 L 144.585938 375.117188 C 145.410156 375.066406 146.21875 374.945312 147 374.765625 L 157.65625 407.550781 C 157.875 408.222656 158.460938 408.648438 159.078125 408.582031 L 159.34375 408.554688 C 160.164062 408.464844 160.699219 407.558594 160.46875 406.640625 Z M 160.46875 406.640625 " fill-opacity="1" fill-rule="nonzero"/></g><g clip-path="url(#1fa313aff0)"><g mask="url(#dd6e0c9a05)"><g transform="matrix(1, 0, 0, 1, 106, 329)"><g clip-path="url(#6656fb7eb7)"><g clip-path="url(#c57d43180e)"><path fill="#231f20" d="M 54.46875 77.640625 L 45.980469 43.519531 C 49.0625 41.328125 51.1875 37.929688 51.621094 34.011719 L 54.1875 10.757812 C 54.71875 5.9375 51.042969 1.644531 46.070312 1.277344 L 38.976562 0.753906 L 30.046875 23.234375 L 9.074219 35.003906 L 10.703125 44.890625 C 10.6875 44.886719 10.671875 44.878906 10.65625 44.875 L 7.710938 44.324219 C 6.96875 44.1875 6.257812 44.6875 6.140625 45.433594 L 0.816406 79.070312 C 0.6875 79.882812 1.316406 80.621094 2.140625 80.621094 L 2.410156 80.621094 C 3.027344 80.621094 3.566406 80.195312 3.710938 79.59375 L 11.417969 47.726562 L 26.019531 46.863281 L 33.773438 83.761719 C 33.917969 84.453125 34.457031 84.941406 35.074219 84.941406 L 35.34375 84.941406 C 36.167969 84.941406 36.796875 84.09375 36.667969 83.15625 L 31.628906 46.527344 L 38.585938 46.117188 C 39.410156 46.066406 40.21875 45.945312 41 45.765625 L 51.65625 78.550781 C 51.875 79.222656 52.460938 79.648438 53.078125 79.582031 L 53.34375 79.554688 C 54.164062 79.464844 54.699219 78.558594 54.46875 77.640625 Z M 54.46875 77.640625 " fill-opacity="1" fill-rule="nonzero"/></g></g></g></g></g><path fill="#f8b6bf" d="M 123.664062 405.875 L 123.210938 396.324219 L 116.609375 395.992188 L 118.566406 407.847656 Z M 123.664062 405.875 " fill-opacity="1" fill-rule="nonzero"/><g clip-path="url(#633549e7e5)"><path fill="#9ad0d3" d="M 108.214844 408.746094 C 108.300781 408.691406 108.390625 408.648438 108.488281 408.609375 L 111.546875 407.472656 C 113.539062 406.734375 115.355469 405.625 116.898438 404.207031 L 117.230469 403.894531 C 117.726562 403.445312 118.539062 403.613281 118.824219 404.226562 L 119.902344 406.550781 L 122.238281 404.1875 C 122.941406 403.480469 124.128906 403.535156 124.796875 404.304688 L 124.847656 404.359375 C 125.339844 404.933594 125.730469 405.582031 126 406.28125 L 126.507812 407.609375 L 126.988281 408.871094 C 127.421875 410.003906 126.675781 411.21875 125.453125 411.359375 L 118.675781 412.148438 C 116.089844 413.550781 113.558594 413.621094 111.078125 412.5625 C 110.730469 412.414062 110.355469 412.34375 109.980469 412.28125 C 109.761719 412.25 109.550781 412.191406 109.347656 412.117188 C 108.6875 411.871094 108.113281 411.410156 107.738281 410.792969 C 107.292969 410.074219 107.527344 409.167969 108.214844 408.746094 Z M 108.214844 408.746094 " fill-opacity="1" fill-rule="nonzero"/></g><g clip-path="url(#fbec929301)"><path fill="#231f20" d="M 108.214844 408.746094 L 109.148438 409.605469 C 110.417969 410.773438 112.117188 411.359375 113.835938 411.21875 L 117.308594 410.9375 C 118.1875 410.863281 119.042969 410.613281 119.824219 410.203125 L 123.597656 408.214844 C 124.492188 407.746094 125.5 407.535156 126.507812 407.609375 L 126.988281 408.871094 C 127.421875 410.003906 126.675781 411.21875 125.453125 411.359375 L 118.675781 412.148438 C 116.089844 413.550781 113.558594 413.621094 111.078125 412.5625 C 110.730469 412.414062 110.355469 412.34375 109.980469 412.28125 C 109.761719 412.25 109.550781 412.191406 109.347656 412.117188 C 108.6875 411.871094 108.113281 411.410156 107.738281 410.792969 C 107.292969 410.074219 107.527344 409.167969 108.214844 408.746094 Z M 108.214844 408.746094 " fill-opacity="1" fill-rule="nonzero"/></g><path fill="#9ad0d3" d="M 145.519531 359.707031 L 143.867188 347.527344 L 136.132812 348.398438 L 127.507812 347.484375 L 126.554688 352.058594 L 106.570312 360.210938 C 102.660156 361.808594 99.613281 364.992188 98.195312 368.96875 L 90.703125 389.921875 C 90.03125 391.808594 90.871094 393.839844 92.542969 394.757812 L 90.910156 399.972656 C 90.707031 399.875 90.464844 399.84375 90.226562 399.910156 L 89.789062 400.039062 C 87.769531 400.609375 85.652344 400.785156 83.539062 400.546875 L 80.296875 400.1875 C 80.191406 400.175781 80.089844 400.171875 79.992188 400.183594 C 79.1875 400.253906 78.570312 400.953125 78.640625 401.796875 C 78.699219 402.515625 79.003906 403.1875 79.484375 403.703125 C 79.632812 403.863281 79.796875 404.007812 79.976562 404.136719 C 80.28125 404.359375 80.585938 404.589844 80.828125 404.882812 C 82.570312 406.941406 84.859375 408.019531 87.796875 407.929688 L 94.207031 410.277344 C 95.363281 410.699219 96.574219 409.953125 96.699219 408.746094 L 96.835938 407.402344 L 96.980469 405.988281 C 97.054688 405.246094 97 404.488281 96.816406 403.753906 L 96.796875 403.683594 C 96.675781 403.199219 96.363281 402.8125 95.96875 402.582031 L 98.695312 396.46875 L 99.089844 396.574219 C 100.949219 397.054688 102.882812 396.132812 103.703125 394.390625 C 106.261719 388.953125 107.695312 382.957031 108.011719 376.414062 L 112.714844 394.613281 C 113.011719 395.761719 114.050781 396.566406 115.238281 396.566406 L 123.3125 396.566406 C 124.882812 396.566406 126.101562 395.183594 125.898438 393.625 C 124.988281 386.738281 122.902344 380.390625 119.042969 374.859375 C 118.394531 373.929688 119.089844 372.648438 120.222656 372.675781 C 126.101562 372.804688 131.601562 372.542969 136.605469 371.753906 C 142.289062 370.859375 146.296875 365.40625 145.519531 359.707031 Z M 145.519531 359.707031 " fill-opacity="1" fill-rule="nonzero"/><path fill="#f8b6bf" d="M 95.078125 404.574219 L 98.976562 395.839844 L 93.226562 392.574219 L 89.636719 404.039062 Z M 95.078125 404.574219 " fill-opacity="1" fill-rule="nonzero"/><path fill="#9ad0d3" d="M 79.992188 400.183594 C 80.089844 400.171875 80.191406 400.175781 80.296875 400.1875 L 83.539062 400.546875 C 85.652344 400.785156 87.769531 400.609375 89.789062 400.039062 L 90.226562 399.910156 C 90.871094 399.730469 91.519531 400.25 91.5 400.921875 L 91.414062 403.484375 L 94.566406 402.425781 C 95.511719 402.109375 96.546875 402.695312 96.796875 403.683594 L 96.816406 403.753906 C 97 404.488281 97.054688 405.246094 96.980469 405.988281 L 96.835938 407.402344 L 96.699219 408.746094 C 96.574219 409.953125 95.363281 410.699219 94.207031 410.277344 L 87.796875 407.929688 C 84.859375 408.019531 82.570312 406.941406 80.828125 404.882812 C 80.585938 404.589844 80.28125 404.359375 79.976562 404.136719 C 79.796875 404.007812 79.632812 403.863281 79.484375 403.703125 C 79.003906 403.1875 78.699219 402.515625 78.640625 401.796875 C 78.570312 400.953125 79.1875 400.253906 79.992188 400.183594 Z M 79.992188 400.183594 " fill-opacity="1" fill-rule="nonzero"/><path fill="#231f20" d="M 79.992188 400.183594 L 80.4375 401.371094 C 81.046875 402.988281 82.300781 404.273438 83.894531 404.921875 L 87.125 406.230469 C 87.945312 406.5625 88.820312 406.726562 89.703125 406.710938 L 93.964844 406.632812 C 94.976562 406.617188 95.96875 406.882812 96.835938 407.402344 L 96.699219 408.746094 C 96.574219 409.953125 95.363281 410.699219 94.207031 410.277344 L 87.796875 407.929688 C 84.859375 408.019531 82.570312 406.941406 80.828125 404.882812 C 80.585938 404.589844 80.28125 404.359375 79.976562 404.136719 C 79.796875 404.007812 79.632812 403.863281 79.484375 403.703125 C 79.003906 403.1875 78.699219 402.515625 78.640625 401.796875 C 78.570312 400.953125 79.1875 400.253906 79.992188 400.183594 Z M 79.992188 400.183594 " fill-opacity="1" fill-rule="nonzero"/><path fill="#edbea4" d="M 149.265625 321.972656 L 147.429688 316.984375 C 147.199219 316.355469 146.496094 316.039062 145.867188 316.28125 L 139.9375 318.8125 C 139.007812 319.207031 138.40625 320.117188 138.40625 321.125 L 138.40625 321.847656 C 135.335938 322.292969 132.722656 324.253906 131.925781 326.871094 L 128.894531 339.679688 C 128.625 339.769531 128.34375 339.828125 128.054688 339.851562 L 115.320312 340.769531 L 115.03125 346.898438 L 126.605469 347.3125 L 126.570312 347.800781 L 126.964844 347.832031 L 126.3125 350.585938 C 125.816406 352.695312 126.488281 354.824219 128.144531 356.367188 L 130.007812 358.101562 C 133.40625 361.269531 137.804688 363.507812 142.6875 364.632812 C 146.511719 365.511719 150.269531 362.910156 150.847656 359.03125 L 155.355469 328.707031 C 155.859375 325.335938 153.140625 322.421875 149.265625 321.972656 Z M 149.265625 321.972656 " fill-opacity="1" fill-rule="nonzero"/><g mask="url(#e965127cec)"><g transform="matrix(1, 0, 0, 1, 114, 339)"><g clip-path="url(#d4f4062297)"><g clip-path="url(#18230249c9)"><path fill="#231f20" d="M 14.894531 0.679688 L 14.558594 2.09375 L 13.03125 2.160156 L 12.609375 8.308594 L 1.035156 7.902344 L 1.320312 1.765625 L 14.054688 0.847656 C 14.34375 0.832031 14.628906 0.773438 14.894531 0.679688 Z M 14.894531 0.679688 " fill-opacity="1" fill-rule="nonzero"/></g></g></g></g><g mask="url(#210ca1f52e)"><g transform="matrix(1, 0, 0, 1, 126, 323)"><g clip-path="url(#8dc17f2718)"><g clip-path="url(#9282792536)"><path fill="#231f20" d="M 21.503906 3.699219 L 15.019531 16.074219 C 14.527344 17.015625 13.628906 17.609375 12.640625 17.65625 L 1.03125 18.164062 L 0.570312 24.800781 L 14.828125 26.003906 C 16.042969 26.105469 17.21875 25.5 17.925781 24.40625 L 23.5 17.179688 C 26.476562 13.316406 28.371094 8.730469 28.984375 3.890625 C 29.125 2.433594 28.175781 1.117188 26.851562 0.929688 L 26.644531 0.898438 C 24.574219 0.605469 22.542969 1.710938 21.503906 3.699219 Z M 21.503906 3.699219 " fill-opacity="1" fill-rule="nonzero"/></g></g></g></g><path fill="#f5faf4" d="M 180.617188 350.589844 L 67.019531 350.589844 C 66.269531 350.589844 65.664062 351.195312 65.664062 351.945312 L 65.664062 353.347656 C 65.664062 354.097656 66.269531 354.703125 67.019531 354.703125 L 71.835938 354.703125 L 71.835938 412 L 74.484375 412 L 74.484375 354.703125 L 172.601562 354.703125 L 172.601562 412 L 175.246094 412 L 175.246094 354.703125 L 180.617188 354.703125 C 181.367188 354.703125 181.972656 354.097656 181.972656 353.347656 L 181.972656 351.945312 C 181.972656 351.195312 181.367188 350.589844 180.617188 350.589844 Z M 180.617188 350.589844 " fill-opacity="1" fill-rule="nonzero"/><g mask="url(#0fa26faa9c)"><g transform="matrix(1, 0, 0, 1, 65, 350)"><g clip-path="url(#d9a2898ca2)"><g clip-path="url(#cb508bdf4c)"><path fill="#231f20" d="M 115.617188 0.589844 L 2.019531 0.589844 C 1.269531 0.589844 0.664062 1.195312 0.664062 1.945312 L 0.664062 3.347656 C 0.664062 4.097656 1.269531 4.703125 2.019531 4.703125 L 6.835938 4.703125 L 6.835938 62 L 9.484375 62 L 9.484375 4.703125 L 107.601562 4.703125 L 107.601562 62 L 110.246094 62 L 110.246094 4.703125 L 115.617188 4.703125 C 116.367188 4.703125 116.972656 4.097656 116.972656 3.347656 L 116.972656 1.945312 C 116.972656 1.195312 116.367188 0.589844 115.617188 0.589844 Z M 115.617188 0.589844 " fill-opacity="1" fill-rule="nonzero"/></g></g></g></g><path fill="#231f20" d="M 128.796875 348.796875 L 112.128906 348.796875 L 106.78125 334.050781 C 106.445312 333.117188 105.417969 332.363281 104.484375 332.363281 L 83.363281 332.363281 C 82.429688 332.363281 81.949219 333.117188 82.285156 334.050781 L 87.671875 348.902344 C 88.007812 349.835938 89.039062 350.589844 89.96875 350.589844 L 130.039062 350.589844 C 130.179688 350.589844 130.296875 350.472656 130.296875 350.332031 L 130.296875 350.296875 C 130.296875 349.46875 129.625 348.796875 128.796875 348.796875 Z M 128.796875 348.796875 " fill-opacity="1" fill-rule="nonzero"/><path fill="#f5faf4" d="M 98.539062 339.90625 C 98.835938 340.15625 99.089844 340.433594 99.300781 340.746094 C 99.511719 341.054688 99.660156 341.371094 99.746094 341.695312 C 99.835938 342.019531 99.855469 342.324219 99.808594 342.613281 C 99.761719 342.902344 99.652344 343.148438 99.480469 343.355469 C 99.304688 343.566406 99.082031 343.71875 98.804688 343.816406 C 98.53125 343.910156 98.226562 343.945312 97.894531 343.917969 C 97.558594 343.886719 97.21875 343.796875 96.878906 343.648438 C 96.535156 343.496094 96.214844 343.296875 95.917969 343.046875 C 95.617188 342.796875 95.363281 342.519531 95.152344 342.207031 C 94.945312 341.898438 94.796875 341.582031 94.707031 341.257812 C 94.621094 340.933594 94.597656 340.628906 94.644531 340.339844 C 94.691406 340.050781 94.800781 339.804688 94.976562 339.597656 C 95.148438 339.386719 95.375 339.234375 95.648438 339.136719 C 95.921875 339.042969 96.226562 339.007812 96.5625 339.035156 C 96.894531 339.066406 97.234375 339.15625 97.578125 339.304688 C 97.917969 339.457031 98.238281 339.65625 98.539062 339.90625 Z M 98.539062 339.90625 " fill-opacity="1" fill-rule="nonzero"/><g mask="url(#73e914387c)"><g transform="matrix(1, 0, 0, 1, 78, 354)"><g clip-path="url(#5baf099295)"><g clip-path="url(#6e8daff74d)"><path fill="#231f20" d="M 51.476562 0.699219 C 50.96875 1.503906 50.21875 2.132812 49.328125 2.496094 L 34.046875 8.714844 C 32.921875 9.105469 31.9375 9.722656 31.125 10.5 C 31.054688 10.566406 30.984375 10.640625 30.910156 10.714844 C 30.90625 10.71875 30.90625 10.71875 30.90625 10.71875 C 30.769531 10.863281 30.632812 11.015625 30.503906 11.171875 C 30.046875 11.722656 29.671875 12.332031 29.382812 12.976562 C 29.296875 13.160156 29.21875 13.347656 29.15625 13.535156 C 29.121094 13.628906 29.085938 13.726562 29.058594 13.820312 C 28.964844 14.09375 28.894531 14.375 28.839844 14.65625 C 28.832031 14.695312 28.820312 14.730469 28.816406 14.761719 C 28.691406 15.40625 28.648438 16.066406 28.691406 16.738281 C 28.691406 16.742188 28.691406 16.742188 28.691406 16.742188 C 28.722656 17.246094 28.804688 17.742188 28.929688 18.242188 L 29.890625 21.957031 L 30.011719 22.414062 C 29.695312 28.960938 28.261719 34.957031 25.703125 40.390625 C 24.882812 42.132812 22.949219 43.054688 21.089844 42.570312 L 20.695312 42.46875 L 17.964844 48.582031 C 18.363281 48.8125 18.671875 49.199219 18.796875 49.683594 L 18.816406 49.753906 C 19 50.492188 19.054688 51.242188 18.980469 51.988281 L 18.835938 53.402344 L 18.695312 54.742188 C 18.574219 55.957031 17.363281 56.699219 16.207031 56.277344 L 9.800781 53.933594 C 6.859375 54.019531 4.570312 52.945312 2.828125 50.882812 C 2.582031 50.589844 2.28125 50.359375 1.976562 50.132812 C 1.792969 50.007812 1.632812 49.859375 1.484375 49.703125 C 1.007812 49.183594 0.703125 48.515625 0.640625 47.796875 C 0.566406 46.953125 1.1875 46.253906 1.992188 46.183594 C 2.089844 46.171875 2.191406 46.171875 2.296875 46.1875 L 5.539062 46.546875 C 7.652344 46.78125 9.773438 46.609375 11.785156 46.039062 L 12.226562 45.910156 C 12.464844 45.847656 12.703125 45.875 12.910156 45.972656 L 14.542969 40.753906 C 12.871094 39.84375 12.027344 37.808594 12.703125 35.921875 L 20.195312 14.964844 C 21.613281 10.992188 24.660156 7.808594 28.570312 6.210938 L 42.078125 0.699219 Z M 51.476562 0.699219 " fill-opacity="1" fill-rule="nonzero"/></g></g></g></g><path fill="#f8b6bf" d="M 126.957031 342.214844 L 126.757812 345.125 L 125.835938 344.910156 L 125.019531 346.332031 C 124.609375 347.054688 123.84375 347.441406 123.066406 347.332031 L 120.332031 346.9375 C 119.871094 346.875 119.414062 347.0625 119.109375 347.449219 L 118.429688 348.3125 C 118.175781 348.632812 117.804688 348.8125 117.410156 348.792969 L 115.761719 348.730469 C 115.417969 348.714844 115.222656 348.304688 115.40625 347.996094 L 116.488281 346.148438 L 115.042969 347.757812 C 114.699219 348.136719 114.222656 348.347656 113.726562 348.332031 C 113.628906 348.328125 113.574219 348.207031 113.632812 348.125 L 115.042969 346.035156 C 115.199219 345.804688 115.410156 345.636719 115.65625 345.542969 L 124.394531 342.199219 C 124.601562 342.121094 124.820312 342.085938 125.039062 342.101562 Z M 126.957031 342.214844 " fill-opacity="1" fill-rule="nonzero"/></svg>