<svg xmlns="http://www.w3.org/2000/svg" xmlns:xlink="http://www.w3.org/1999/xlink" width="414" zoomAndPan="magnify" viewBox="0 0 310.5 671.999985" height="896" preserveAspectRatio="xMidYMid meet" version="1.0"><defs><filter x="0%" y="0%" width="100%" height="100%" id="0fb952c360"><feColorMatrix values="0 0 0 0 1 0 0 0 0 1 0 0 0 0 1 0 0 0 1 0" color-interpolation-filters="sRGB"/></filter><clipPath id="eab39c04a9"><path d="M 0 0.539062 L 310 0.539062 L 310 671.457031 L 0 671.457031 Z M 0 0.539062 " clip-rule="nonzero"/></clipPath><mask id="6256863bac"><g filter="url(#0fb952c360)"><rect x="-31.05" width="372.6" fill="#000000" y="-67.199999" height="806.399982" fill-opacity="0.43"/></g></mask><clipPath id="8467cbe0d4"><path d="M 0 0.539062 L 310 0.539062 L 310 359 L 0 359 Z M 0 0.539062 " clip-rule="nonzero"/></clipPath><clipPath id="6df8ee60aa"><path d="M 0 192 L 310 192 L 310 671.457031 L 0 671.457031 Z M 0 192 " clip-rule="nonzero"/></clipPath><clipPath id="43f95f2c21"><path d="M 0 0.539062 L 310 0.539062 L 310 344 L 0 344 Z M 0 0.539062 " clip-rule="nonzero"/></clipPath><clipPath id="177e9f0c69"><path d="M 0 213 L 310 213 L 310 659 L 0 659 Z M 0 213 " clip-rule="nonzero"/></clipPath><clipPath id="66fea3cf19"><path d="M 0 445 L 63 445 L 63 537 L 0 537 Z M 0 445 " clip-rule="nonzero"/></clipPath><clipPath id="33d77bdbd8"><path d="M 256 9 L 310 9 L 310 177 L 256 177 Z M 256 9 " clip-rule="nonzero"/></clipPath><clipPath id="49bdbee53a"><path d="M 0 0.539062 L 117 0.539062 L 117 105 L 0 105 Z M 0 0.539062 " clip-rule="nonzero"/></clipPath><clipPath id="2d41f33d9e"><path d="M 0 0.539062 L 100 0.539062 L 100 100 L 0 100 Z M 0 0.539062 " clip-rule="nonzero"/></clipPath><clipPath id="8fe7fa80a3"><path d="M 0 0.539062 L 79 0.539062 L 79 85 L 0 85 Z M 0 0.539062 " clip-rule="nonzero"/></clipPath><clipPath id="b92653cf7b"><path d="M 0 0.539062 L 57 0.539062 L 57 56 L 0 56 Z M 0 0.539062 " clip-rule="nonzero"/></clipPath><clipPath id="b371318ba0"><path d="M 0 0.539062 L 36 0.539062 L 36 35 L 0 35 Z M 0 0.539062 " clip-rule="nonzero"/></clipPath><clipPath id="71428c0d30"><path d="M 0 0.539062 L 12 0.539062 L 12 23 L 0 23 Z M 0 0.539062 " clip-rule="nonzero"/></clipPath><clipPath id="7ef7f5a6f8"><path d="M 275 376 L 310 376 L 310 619 L 275 619 Z M 275 376 " clip-rule="nonzero"/></clipPath><clipPath id="2a903d822b"><path d="M 283 402 L 310 402 L 310 602 L 283 602 Z M 283 402 " clip-rule="nonzero"/></clipPath><clipPath id="6c5d9d084d"><path d="M 292 439 L 310 439 L 310 585 L 292 585 Z M 292 439 " clip-rule="nonzero"/></clipPath><clipPath id="2f235788a8"><path d="M 0 643 L 4 643 L 4 665 L 0 665 Z M 0 643 " clip-rule="nonzero"/></clipPath><clipPath id="7c9ec91795"><path d="M 0 610 L 1 610 L 1 632 L 0 632 Z M 0 610 " clip-rule="nonzero"/></clipPath><clipPath id="80ffc1ba12"><path d="M 0 221 L 6 221 L 6 241 L 0 241 Z M 0 221 " clip-rule="nonzero"/></clipPath><clipPath id="d46f5421f7"><path d="M 0 248 L 6 248 L 6 260 L 0 260 Z M 0 248 " clip-rule="nonzero"/></clipPath><clipPath id="fb8beb2b1e"><rect x="0" width="310" y="0" height="672"/></clipPath></defs><g clip-path="url(#eab39c04a9)"><path fill="#ffffff" d="M 0 0.539062 L 310 0.539062 L 310 671.460938 L 0 671.460938 Z M 0 0.539062 " fill-opacity="1" fill-rule="nonzero"/><path fill="#f5faf4" d="M 0 0.539062 L 310 0.539062 L 310 671.460938 L 0 671.460938 Z M 0 0.539062 " fill-opacity="1" fill-rule="nonzero"/><g mask="url(#6256863bac)"><g transform="matrix(1, 0, 0, 1, 0, -0.000000000000001776)"><g clip-path="url(#fb8beb2b1e)"><g clip-path="url(#8467cbe0d4)"><path fill="#9ad0d3" d="M -47.445312 0.539062 L -47.445312 358.296875 C -29.6875 358.363281 -11.917969 353.945312 2.800781 344.039062 C 24.160156 329.65625 39.394531 304.417969 37.613281 278.128906 C 37.535156 276.957031 37.425781 275.796875 37.292969 274.644531 C 37.019531 272.324219 36.636719 270.039062 36.160156 267.789062 C 31.777344 247.101562 19.378906 229.132812 10.359375 210.109375 C 9.746094 208.824219 9.152344 207.53125 8.578125 206.226562 C 8.503906 206.050781 8.097656 205.070312 8.027344 204.917969 C 7.859375 204.507812 7.695312 204.097656 7.535156 203.6875 C 6.429688 200.871094 5.441406 198.003906 4.621094 195.085938 C 3.871094 192.40625 3.320312 189.699219 2.839844 186.957031 C 2.824219 186.875 2.8125 186.800781 2.800781 186.734375 C 2.792969 186.65625 2.789062 186.566406 2.777344 186.460938 C 2.71875 185.761719 2.640625 185.070312 2.585938 184.375 C 2.464844 182.734375 2.414062 181.089844 2.4375 179.449219 C 2.457031 178.066406 2.578125 176.703125 2.675781 175.328125 C 2.683594 175.226562 2.6875 175.140625 2.691406 175.066406 C 2.707031 175.007812 2.71875 174.941406 2.730469 174.871094 C 2.851562 174.203125 2.960938 173.527344 3.097656 172.855469 C 3.695312 169.945312 4.597656 167.152344 5.628906 164.371094 C 5.660156 164.292969 5.6875 164.222656 5.710938 164.160156 C 5.75 164.082031 5.792969 163.996094 5.84375 163.890625 C 6.046875 163.480469 6.226562 163.0625 6.429688 162.652344 C 7.023438 161.425781 7.671875 160.214844 8.359375 159.035156 C 9.050781 157.847656 9.785156 156.691406 10.558594 155.558594 C 10.945312 154.992188 11.355469 154.441406 11.75 153.878906 C 11.789062 153.832031 11.820312 153.785156 11.851562 153.746094 C 12.082031 153.457031 12.308594 153.175781 12.542969 152.894531 C 14.304688 150.777344 16.214844 148.789062 18.25 146.9375 C 19.066406 146.195312 19.902344 145.484375 20.761719 144.792969 C 20.773438 144.792969 21.710938 144.070312 21.886719 143.945312 C 22.628906 143.414062 23.386719 142.898438 24.15625 142.402344 C 26.472656 140.90625 28.890625 139.667969 31.363281 138.453125 C 31.46875 138.402344 31.558594 138.355469 31.640625 138.316406 C 31.703125 138.292969 31.769531 138.269531 31.847656 138.242188 C 32.488281 138 33.121094 137.746094 33.761719 137.519531 C 35.265625 136.992188 36.789062 136.53125 38.332031 136.140625 C 39.660156 135.804688 40.996094 135.570312 42.335938 135.300781 C 42.441406 135.28125 42.527344 135.261719 42.605469 135.246094 C 42.660156 135.242188 42.71875 135.238281 42.78125 135.230469 C 43.457031 135.171875 44.128906 135.101562 44.808594 135.054688 C 44.8125 135.050781 44.820312 135.050781 44.828125 135.050781 C 46.023438 134.972656 47.222656 134.945312 48.417969 134.960938 C 50.363281 134.984375 52.300781 135.121094 54.238281 135.332031 C 54.289062 135.351562 55.910156 135.5625 55.953125 135.570312 C 56.8125 135.707031 57.667969 135.855469 58.523438 136.011719 C 60.242188 136.328125 61.953125 136.679688 63.664062 137.042969 C 67.078125 137.765625 70.476562 138.550781 73.902344 139.222656 C 88.453125 142.082031 103.699219 142.410156 116.210938 133.253906 C 125.25 126.640625 131.484375 117.542969 136.300781 107.652344 C 137.378906 105.449219 138.382812 103.199219 139.332031 100.9375 C 139.753906 99.929688 140.160156 98.921875 140.5625 97.910156 C 140.566406 97.90625 140.570312 97.898438 140.570312 97.890625 C 142.144531 93.890625 143.585938 89.839844 145.085938 85.808594 C 145.085938 85.804688 145.085938 85.804688 145.085938 85.800781 C 145.324219 85.160156 145.5625 84.515625 145.808594 83.871094 C 146.359375 82.414062 146.917969 80.957031 147.496094 79.511719 C 147.707031 78.980469 147.925781 78.449219 148.140625 77.921875 C 148.234375 77.714844 148.695312 76.632812 148.742188 76.527344 C 149.839844 74.050781 151.019531 71.605469 152.328125 69.226562 C 152.621094 68.691406 152.925781 68.15625 153.234375 67.625 C 153.996094 66.316406 154.804688 65.03125 155.65625 63.777344 C 155.960938 63.335938 156.269531 62.898438 156.585938 62.46875 C 156.601562 62.46875 157.421875 61.378906 157.519531 61.273438 C 158.488281 60.105469 159.519531 58.984375 160.597656 57.917969 C 161.144531 57.382812 161.703125 56.859375 162.277344 56.347656 C 162.480469 56.171875 164.261719 54.753906 163.910156 54.988281 C 166.214844 53.3125 168.671875 51.855469 171.234375 50.617188 C 171.703125 50.394531 172.179688 50.171875 172.652344 49.964844 C 172.742188 49.941406 173.929688 49.46875 174.066406 49.417969 C 175.730469 48.804688 177.421875 48.265625 179.132812 47.796875 C 181.863281 47.050781 184.632812 46.492188 187.429688 46.050781 C 187.511719 46.042969 188.816406 45.863281 188.980469 45.84375 C 189.75 45.761719 190.527344 45.679688 191.296875 45.617188 C 192.847656 45.484375 194.402344 45.382812 195.957031 45.320312 C 203.027344 45.023438 210.09375 45.441406 217.140625 45.984375 C 232.96875 47.210938 248.863281 48.910156 264.601562 45.8125 C 276.640625 43.441406 288.675781 37.601562 297.238281 28.691406 C 299.859375 25.96875 302.125 22.964844 303.992188 19.726562 C 304.832031 18.273438 305.585938 16.773438 306.261719 15.226562 C 306.746094 14.101562 307.1875 12.957031 307.585938 11.789062 C 308.816406 8.144531 309.414062 4.363281 309.632812 0.539062 L -47.445312 0.539062 " fill-opacity="1" fill-rule="nonzero"/></g><path fill="#febe96" d="M 199.464844 517.742188 C 199.453125 517.753906 199.445312 517.765625 199.4375 517.777344 C 199.546875 517.648438 199.628906 517.546875 199.6875 517.476562 C 199.613281 517.566406 199.539062 517.65625 199.464844 517.742188 " fill-opacity="1" fill-rule="nonzero"/><path fill="#febe96" d="M 196.351562 525.257812 C 196.347656 525.28125 196.34375 525.300781 196.339844 525.320312 C 196.398438 525.058594 196.425781 524.917969 196.429688 524.882812 C 196.402344 525.007812 196.375 525.132812 196.351562 525.257812 " fill-opacity="1" fill-rule="nonzero"/><g clip-path="url(#6df8ee60aa)"><path fill="#febe96" d="M 308.910156 211.320312 C 296.027344 224.097656 287.226562 240.636719 281.84375 257.847656 C 269.9375 295.933594 275.046875 336.273438 281.953125 374.75 C 285.515625 394.59375 290.023438 414.5625 291.75 434.59375 C 292.082031 438.457031 292.265625 442.335938 292.25 446.214844 C 292.242188 447.570312 292.210938 448.929688 292.152344 450.28125 C 292.125 450.867188 292.09375 451.449219 292.058594 452.035156 C 292.007812 452.855469 291.945312 453.683594 291.875 454.503906 C 291.824219 455.054688 291.769531 455.597656 291.710938 456.144531 C 291.703125 456.226562 291.640625 456.710938 291.601562 457.027344 C 291.554688 457.347656 291.480469 457.824219 291.464844 457.9375 C 291.398438 458.335938 291.332031 458.738281 291.257812 459.136719 C 291.09375 460.0625 290.90625 460.984375 290.699219 461.898438 C 290.261719 463.835938 289.738281 465.753906 289.105469 467.636719 C 288.855469 468.378906 288.582031 469.109375 288.304688 469.84375 C 288.28125 469.910156 288.257812 469.976562 288.234375 470.035156 C 288.085938 470.363281 287.941406 470.691406 287.78125 471.015625 C 286.929688 472.742188 286.019531 474.417969 284.957031 476.023438 C 284.746094 476.34375 284.527344 476.65625 284.308594 476.96875 C 284.246094 477.058594 283.980469 477.410156 283.796875 477.648438 C 283.675781 477.792969 283.546875 477.949219 283.523438 477.96875 C 283.171875 478.34375 282.847656 478.746094 282.496094 479.117188 C 281.96875 479.683594 281.417969 480.234375 280.855469 480.765625 C 280.75 480.863281 280.328125 481.222656 279.9375 481.558594 C 279.488281 481.941406 279.085938 482.292969 279.269531 482.171875 C 277.667969 483.355469 275.9375 484.394531 274.160156 485.285156 C 273.75 485.492188 273.339844 485.6875 272.921875 485.875 C 272.859375 485.902344 272.808594 485.929688 272.757812 485.949219 C 272.683594 485.976562 272.582031 486.011719 272.433594 486.066406 C 271.292969 486.488281 270.144531 486.875 268.976562 487.210938 C 264.332031 488.539062 262.027344 488.808594 257.515625 489.097656 C 253.058594 489.386719 248.585938 489.378906 244.121094 489.320312 C 230.8125 489.144531 217.050781 489.191406 204.652344 494.089844 C 202.222656 495.050781 199.84375 496.195312 197.535156 497.558594 C 197.121094 497.800781 196.707031 498.054688 196.296875 498.3125 C 183.09375 506.65625 175.886719 522.195312 180.84375 537.484375 C 184.992188 550.292969 195.0625 559.929688 203.785156 569.734375 C 204.851562 570.933594 205.910156 572.140625 206.941406 573.363281 C 207.457031 573.972656 207.96875 574.585938 208.464844 575.203125 C 208.691406 575.480469 209.558594 576.621094 209.636719 576.707031 C 211.308594 579 212.898438 581.34375 214.246094 583.847656 C 214.601562 584.507812 214.925781 585.179688 215.257812 585.851562 C 215.347656 586.03125 215.414062 586.164062 215.464844 586.265625 C 215.484375 586.316406 215.5 586.375 215.527344 586.449219 C 216.011719 587.84375 216.496094 589.222656 216.835938 590.664062 C 216.980469 591.265625 217.058594 591.890625 217.1875 592.496094 C 217.214844 592.8125 217.257812 593.128906 217.277344 593.4375 C 217.328125 594.410156 217.332031 595.386719 217.285156 596.363281 C 217.265625 596.761719 217.234375 597.15625 217.203125 597.554688 C 217.195312 597.621094 217.179688 597.6875 217.164062 597.757812 C 216.808594 599.46875 216.371094 601.152344 215.742188 602.78125 C 215.742188 602.773438 215.746094 602.765625 215.746094 602.761719 C 215.710938 602.761719 215.042969 604.191406 214.894531 604.46875 C 214.375 605.433594 213.8125 606.371094 213.207031 607.285156 C 213.023438 607.5625 211.953125 608.996094 212.121094 608.820312 C 211.652344 609.390625 211.171875 609.949219 210.675781 610.492188 C 209.234375 612.074219 207.679688 613.546875 206.046875 614.925781 C 205.808594 615.125 205.566406 615.320312 205.328125 615.515625 C 205.167969 615.636719 204.761719 615.949219 204.691406 616 C 203.859375 616.585938 203.03125 617.171875 202.175781 617.722656 C 200.347656 618.910156 198.453125 620 196.511719 620.984375 C 195.738281 621.375 194.949219 621.742188 194.167969 622.113281 C 194.0625 622.160156 193.496094 622.402344 193.382812 622.453125 C 193.132812 622.554688 192.882812 622.652344 192.632812 622.746094 C 190.6875 623.492188 188.703125 624.144531 186.699219 624.730469 C 179.179688 626.914062 174.410156 627.644531 167.167969 627.765625 C 166.554688 627.777344 165.921875 627.785156 165.269531 627.785156 C 164.824219 627.785156 164.378906 627.785156 163.933594 627.777344 C 162.445312 627.761719 160.957031 627.710938 159.472656 627.621094 C 158.507812 627.5625 157.542969 627.488281 156.582031 627.398438 C 156.167969 627.363281 155.757812 627.320312 155.34375 627.277344 C 155.214844 627.265625 154.222656 627.148438 153.867188 627.109375 C 153.683594 627.082031 153.507812 627.058594 153.484375 627.058594 C 152.9375 626.96875 152.390625 626.886719 151.847656 626.796875 C 151.027344 626.65625 150.210938 626.507812 149.394531 626.351562 C 147.359375 625.949219 145.335938 625.484375 143.328125 624.953125 C 139.441406 623.925781 135.636719 622.636719 131.910156 621.144531 C 131.621094 621.03125 131.46875 620.972656 131.390625 620.945312 C 131.320312 620.90625 131.171875 620.835938 130.882812 620.703125 C 130.003906 620.292969 129.121094 619.898438 128.25 619.476562 C 126.382812 618.570312 124.546875 617.605469 122.746094 616.578125 C 115.507812 612.449219 111.226562 609.226562 105.441406 603.386719 C 104.082031 602.015625 102.769531 600.59375 101.507812 599.128906 C 100.875 598.394531 100.261719 597.648438 99.652344 596.894531 C 99.59375 596.816406 99.546875 596.761719 99.503906 596.710938 C 99.140625 596.234375 98.789062 595.75 98.4375 595.261719 C 96.0625 591.964844 93.898438 588.523438 91.859375 585.007812 C 87.667969 577.800781 84.003906 570.304688 80.011719 562.984375 C 72 548.292969 61.933594 533.714844 46.640625 525.882812 C 15.6875 510.023438 -23.648438 522.175781 -44.664062 548.59375 C -45.625 549.804688 -46.550781 551.023438 -47.445312 552.265625 L -47.445312 679.988281 L 334.746094 679.988281 L 334.746094 192.941406 C 325.195312 197.605469 316.398438 203.898438 308.910156 211.320312 " fill-opacity="1" fill-rule="nonzero"/></g><path fill="#febe96" d="M 197.5625 533.878906 C 197.632812 534.078125 197.703125 534.273438 197.765625 534.476562 C 197.769531 534.488281 197.773438 534.5 197.78125 534.511719 C 197.648438 534.078125 197.578125 533.894531 197.5625 533.878906 " fill-opacity="1" fill-rule="nonzero"/><g clip-path="url(#43f95f2c21)"><path fill="#42545b" d="M 325.246094 0.539062 C 324.617188 1.535156 323.960938 2.503906 323.273438 3.449219 C 318.1875 10.425781 311.523438 15.769531 303.992188 19.726562 C 302.011719 20.777344 299.96875 21.722656 297.878906 22.582031 C 274.335938 32.238281 248.378906 29.695312 223.558594 30.574219 C 200.585938 31.386719 175.148438 36.144531 159.828125 55.015625 C 156.285156 59.382812 154.027344 64.1875 152.328125 69.226562 C 150.511719 74.621094 149.335938 80.277344 147.910156 85.9375 C 145.832031 94.195312 142.542969 102.039062 136.300781 107.652344 C 135.09375 108.742188 133.773438 109.742188 132.332031 110.648438 C 124.769531 115.402344 115.628906 116.707031 106.882812 117.3125 C 97.03125 117.996094 87.082031 117.695312 77.300781 119.210938 C 67.617188 120.710938 58.621094 124.296875 51.628906 131.347656 C 50.488281 132.496094 49.417969 133.703125 48.417969 134.960938 C 43.300781 141.371094 39.914062 149.09375 37.800781 156.988281 C 31.425781 180.816406 37.621094 205.015625 40.273438 228.902344 C 41.660156 241.417969 41.945312 254.050781 39.382812 266.4375 C 38.808594 269.199219 38.113281 271.941406 37.292969 274.644531 C 34.980469 282.300781 31.707031 289.675781 27.625 296.542969 C 16.363281 315.46875 -1.019531 330.222656 -21.738281 337.785156 C -30.003906 340.804688 -38.675781 342.679688 -47.445312 343.386719 L -47.445312 340.558594 C -32.726562 339.3125 -18.289062 334.699219 -5.738281 326.90625 C 12.707031 315.457031 26.742188 297.242188 33.660156 276.714844 C 34.652344 273.769531 35.484375 270.789062 36.160156 267.789062 C 38.039062 259.484375 38.742188 250.984375 38.464844 242.40625 C 38.023438 228.933594 35.570312 215.644531 33.835938 202.304688 C 31.121094 181.449219 30.785156 159.429688 41.335938 140.492188 C 42.382812 138.617188 43.539062 136.792969 44.808594 135.054688 C 48.953125 129.351562 54.261719 124.511719 60.601562 121.316406 C 68.984375 117.09375 78.453125 115.898438 87.707031 115.351562 C 104.96875 114.335938 128.03125 116.714844 139.117188 100.269531 C 139.636719 99.5 140.117188 98.710938 140.5625 97.910156 C 140.566406 97.90625 140.570312 97.898438 140.570312 97.890625 C 142.667969 94.117188 144.007812 90.011719 145.085938 85.808594 C 145.085938 85.804688 145.085938 85.804688 145.085938 85.800781 C 146.53125 80.167969 147.523438 74.355469 149.273438 68.902344 C 152.453125 58.988281 158.613281 50.679688 166.832031 44.335938 C 185.867188 29.644531 210.371094 27.75 233.546875 27.535156 C 257.671875 27.316406 283.808594 28.40625 305.394531 15.75 C 305.683594 15.578125 305.972656 15.402344 306.261719 15.226562 C 312.1875 11.578125 317.597656 6.472656 321.730469 0.539062 L 325.246094 0.539062 " fill-opacity="1" fill-rule="nonzero"/></g><g clip-path="url(#177e9f0c69)"><path fill="#e07f4f" d="M 334.746094 213.367188 L 334.746094 216.480469 C 313.988281 229.570312 299.226562 252.023438 291.585938 274.914062 C 279.308594 311.6875 284.84375 351.933594 290.023438 389.46875 C 292.421875 406.851562 295.636719 424.472656 295.382812 442.078125 C 295.183594 455.964844 292.65625 470.691406 283.714844 481.789062 C 262.746094 507.835938 226.03125 494.035156 197.535156 497.558594 C 196.703125 497.660156 195.878906 497.777344 195.066406 497.910156 C 187.792969 499.101562 180.5625 501.410156 174.578125 505.832031 C 168.011719 510.679688 163.84375 517.851562 162.113281 525.757812 C 158.25 543.425781 165.355469 560.828125 169.964844 577.582031 C 172.339844 586.222656 174.203125 595.1875 173.730469 604.195312 C 173.34375 611.617188 171.410156 618.886719 168.246094 625.601562 C 167.902344 626.332031 167.542969 627.054688 167.167969 627.765625 C 160.679688 640.207031 149.785156 650.367188 136.640625 655.394531 C 122.707031 660.722656 106.734375 659.953125 93.078125 654.15625 C 78.386719 647.917969 68.570312 636.140625 61.214844 622.328125 C 53.65625 608.136719 48.058594 592.402344 36.648438 580.675781 C 26.777344 570.535156 13.636719 564.378906 -0.183594 561.847656 C -16.214844 558.910156 -32.347656 560.558594 -47.445312 565.609375 L -47.445312 562.46875 C -27.355469 556.097656 -5.089844 555.488281 14.460938 562.984375 C 27.742188 568.078125 38.820312 576.933594 46.714844 588.761719 C 55.761719 602.308594 60.765625 618.121094 70.039062 631.53125 C 79.347656 644.996094 93.664062 653.878906 110.003906 655.761719 C 126.015625 657.605469 141.910156 652.503906 153.554688 641.289062 C 157.679688 637.316406 161.179688 632.746094 163.933594 627.777344 C 168.835938 618.945312 171.378906 608.863281 170.902344 598.652344 C 170.03125 580.105469 161.023438 563.171875 158.78125 544.851562 C 156.898438 529.457031 159.996094 513.0625 173.148438 503.390625 C 182.136719 496.777344 193.5 494.558594 204.652344 494.089844 C 208.113281 493.945312 211.558594 493.96875 214.902344 494.078125 C 231.15625 494.625 248.097656 497.492188 263.882812 492.121094 C 270.40625 489.902344 275.734375 486.230469 279.9375 481.558594 C 285.6875 475.171875 289.332031 466.921875 291.054688 457.976562 C 291.546875 455.421875 291.90625 452.855469 292.152344 450.28125 C 293.445312 436.808594 291.691406 423.109375 289.953125 409.757812 C 287.339844 389.683594 284.125 369.675781 282.515625 349.480469 C 280.929688 329.65625 280.941406 309.558594 284.707031 289.964844 C 287.523438 275.296875 293.050781 261.074219 300.792969 248.308594 C 309.296875 234.285156 320.875 221.796875 334.746094 213.367188 " fill-opacity="1" fill-rule="nonzero"/></g><path fill="#42545b" d="M 56.40625 159.933594 C 53.332031 159.789062 50.789062 156.519531 51.234375 153.507812 C 51.472656 151.902344 52.492188 150.546875 53.835938 149.675781 C 54.140625 149.957031 54.574219 150.085938 55.101562 149.90625 C 57.882812 148.960938 61.300781 150.757812 61.917969 153.707031 C 62.570312 156.847656 59.53125 160.074219 56.40625 159.933594 Z M 64.183594 151.632812 C 63.359375 149.808594 61.820312 148.355469 60.007812 147.535156 C 60.144531 146.882812 59.871094 146.183594 59.023438 146.011719 C 55.363281 145.277344 51.546875 146.917969 49.554688 150.09375 C 47.527344 153.328125 48.277344 157.488281 50.851562 160.183594 C 53.492188 162.953125 57.6875 163.585938 60.914062 161.441406 C 64.089844 159.328125 65.808594 155.246094 64.183594 151.632812 " fill-opacity="1" fill-rule="nonzero"/><path fill="#42545b" d="M 75.558594 151.742188 C 75.257812 152.859375 74.320312 153.882812 73.085938 153.753906 C 71.671875 153.609375 70.441406 152.058594 70.71875 150.652344 C 70.753906 150.460938 70.753906 150.277344 70.726562 150.113281 C 70.875 150.015625 71.011719 149.890625 71.132812 149.730469 C 72.648438 147.671875 76.242188 149.1875 75.558594 151.742188 Z M 75.574219 146.503906 C 73.113281 145.410156 70.28125 146.140625 68.691406 148.300781 C 68.476562 148.585938 68.402344 148.871094 68.425781 149.132812 C 68.214844 149.300781 68.054688 149.550781 67.988281 149.902344 C 67.425781 152.785156 69.265625 155.816406 72.203125 156.472656 C 74.894531 157.070312 77.386719 155.292969 78.207031 152.761719 C 79.011719 150.289062 78 147.582031 75.574219 146.503906 " fill-opacity="1" fill-rule="nonzero"/><path fill="#42545b" d="M 66.597656 171.03125 C 65.273438 171.171875 64.0625 170.464844 63.847656 169.097656 C 63.667969 167.964844 64.191406 166.460938 65.316406 165.984375 C 65.507812 165.90625 65.679688 165.800781 65.828125 165.679688 C 65.972656 165.734375 66.136719 165.769531 66.320312 165.773438 C 67.78125 165.8125 68.992188 167.171875 69.046875 168.609375 C 69.09375 169.988281 67.875 170.894531 66.597656 171.03125 Z M 66.320312 162.941406 C 65.921875 162.929688 65.609375 163.058594 65.386719 163.261719 C 65.121094 163.160156 64.832031 163.144531 64.566406 163.253906 C 61.980469 164.347656 60.542969 167.070312 61.117188 169.847656 C 61.667969 172.519531 64.222656 174.117188 66.867188 173.835938 C 69.570312 173.546875 71.933594 171.460938 71.875 168.609375 C 71.820312 165.605469 69.316406 163.023438 66.320312 162.941406 " fill-opacity="1" fill-rule="nonzero"/><path fill="#42545b" d="M 88.542969 164.625 C 87.578125 167.195312 84.171875 168.179688 81.746094 167.484375 C 78.628906 166.59375 76.300781 164.027344 74.226562 161.621094 C 77.101562 159.917969 80.640625 158.917969 83.949219 159.535156 C 86.257812 159.964844 89.628906 161.730469 88.542969 164.625 Z M 91.097656 161.371094 C 89.9375 158.582031 86.933594 157.117188 84.085938 156.707031 C 79.863281 156.09375 75.40625 157.367188 71.90625 159.738281 C 71.246094 160.183594 71.148438 160.910156 71.378906 161.492188 C 71.210938 161.949219 71.246094 162.480469 71.644531 162.945312 C 73.917969 165.59375 76.363281 168.320312 79.640625 169.71875 C 82.535156 170.953125 85.792969 170.804688 88.425781 168.980469 C 90.894531 167.265625 92.3125 164.292969 91.097656 161.371094 " fill-opacity="1" fill-rule="nonzero"/><path fill="#e07f4f" d="M 283.027344 454.714844 C 281.167969 458.671875 277.492188 462.871094 272.632812 462.089844 C 268.640625 461.453125 266.960938 457.195312 267.300781 453.566406 C 267.785156 448.386719 272.207031 444.492188 275.953125 441.390625 C 276.0625 441.296875 276.148438 441.199219 276.21875 441.097656 C 278.265625 440.394531 280.921875 441.164062 282.425781 442.609375 C 285.605469 445.679688 284.714844 451.136719 283.027344 454.714844 Z M 284.621094 440.808594 C 281.226562 437.257812 274.570312 436.820312 271.734375 441.257812 C 271.714844 441.289062 271.699219 441.320312 271.683594 441.351562 C 268.128906 444.597656 264.960938 448.484375 264.484375 453.410156 C 264.019531 458.199219 266.496094 463.597656 271.515625 464.746094 C 277.539062 466.128906 282.679688 461.691406 285.230469 456.648438 C 287.644531 451.871094 288.683594 445.054688 284.621094 440.808594 " fill-opacity="1" fill-rule="nonzero"/><path fill="#e07f4f" d="M 282.277344 431.578125 C 280.480469 432.894531 278.054688 432.742188 276.875 430.730469 C 275.863281 429 276.007812 426.671875 277.539062 425.304688 C 277.546875 425.300781 277.554688 425.292969 277.558594 425.28125 C 277.566406 425.28125 277.570312 425.277344 277.578125 425.273438 C 279.300781 424.117188 281.605469 424.550781 283.039062 425.988281 C 284.761719 427.714844 284.125 430.222656 282.277344 431.578125 Z M 284.539062 423.539062 C 282.210938 421.628906 278.726562 421.09375 276.148438 422.828125 C 276.035156 422.90625 275.941406 422.992188 275.859375 423.082031 C 275.75 423.136719 275.640625 423.210938 275.535156 423.304688 C 271.402344 427 273.671875 434.886719 279.371094 435.28125 C 282.25 435.480469 285.132812 433.570312 286.316406 430.988281 C 287.527344 428.355469 286.761719 425.363281 284.539062 423.539062 " fill-opacity="1" fill-rule="nonzero"/><path fill="#e07f4f" d="M 267.960938 475.789062 C 266.410156 478.027344 262.75 478.488281 260.726562 476.65625 C 258.722656 474.84375 258.832031 471.070312 260.992188 469.417969 C 263.199219 467.730469 266.679688 468.675781 267.964844 471.027344 C 268.101562 471.273438 268.273438 471.445312 268.464844 471.558594 C 268.929688 472.960938 268.835938 474.53125 267.960938 475.789062 Z M 267.476562 466.121094 C 266.964844 465.84375 266.46875 465.902344 266.085938 466.140625 C 264.726562 465.710938 263.246094 465.640625 261.835938 465.96875 C 258.402344 466.777344 256.273438 470.164062 256.492188 473.601562 C 256.714844 477.097656 259.105469 479.992188 262.628906 480.507812 C 266.019531 481.007812 269.621094 479.351562 270.972656 476.105469 C 272.480469 472.492188 270.898438 468 267.476562 466.121094 " fill-opacity="1" fill-rule="nonzero"/><path fill="#e07f4f" d="M 264.757812 438.164062 C 263.371094 437.347656 262.589844 435.617188 263.679688 434.234375 C 264.640625 433.011719 266.445312 432.554688 267.785156 433.375 C 270.160156 435.492188 267.964844 440.042969 264.757812 438.164062 Z M 269.667969 431.269531 C 269.613281 431.226562 269.558594 431.1875 269.5 431.152344 C 269.425781 431.078125 269.335938 431.007812 269.234375 430.941406 C 266.636719 429.320312 263.113281 430.25 261.339844 432.65625 C 259.40625 435.273438 260.46875 438.75 263.074219 440.449219 C 265.664062 442.136719 269.136719 441.621094 270.773438 438.898438 C 272.199219 436.519531 271.894531 433.054688 269.667969 431.269531 " fill-opacity="1" fill-rule="nonzero"/><g clip-path="url(#66fea3cf19)"><path fill="#e07f4f" d="M 35.515625 477.203125 C 36.3125 476.433594 36.003906 474.710938 34.578125 474.738281 C 34.144531 474.746094 33.710938 474.753906 33.277344 474.765625 C 40.597656 470.042969 49.675781 468.183594 58.273438 469.761719 C 52.988281 476.332031 43.652344 479.308594 35.515625 477.203125 Z M 7.441406 478.515625 C 6.84375 478.671875 6.242188 478.835938 5.648438 479 C 8.226562 468.339844 14.914062 458.8125 24.054688 452.726562 C 25.957031 451.457031 27.957031 450.34375 30.035156 449.394531 C 25.6875 461.125 17.714844 471.390625 7.441406 478.515625 Z M 20.53125 493.097656 C 16.050781 496.332031 10.046875 497.273438 4.804688 495.464844 C 0.171875 493.863281 -3.550781 490.15625 -5.402344 485.667969 C -4.199219 485.191406 -2.988281 484.738281 -1.769531 484.300781 C 6.515625 483.644531 14.886719 487.019531 20.53125 493.097656 Z M -24.589844 489.210938 C -24.730469 489.363281 -24.828125 489.523438 -24.886719 489.6875 C -26.609375 478.570312 -23.320312 466.765625 -16.210938 458.039062 C -14.5 455.941406 -12.582031 454.019531 -10.476562 452.324219 C -10.359375 465.84375 -15.410156 479.226562 -24.589844 489.210938 Z M -24.648438 491.0625 C -24.464844 491.296875 -24.21875 491.484375 -23.949219 491.582031 C -24.125 491.683594 -24.304688 491.789062 -24.476562 491.890625 C -24.539062 491.617188 -24.59375 491.339844 -24.648438 491.0625 Z M -6.875 499.691406 C -9.90625 504.121094 -14.898438 507.222656 -20.296875 507.65625 C -25.707031 508.089844 -31.015625 506.015625 -34.804688 502.21875 C -32.847656 500.742188 -30.84375 499.320312 -28.800781 497.957031 C -21.542969 495.925781 -13.710938 496.515625 -6.875 499.691406 Z M 61.058594 467.472656 C 49.628906 464.617188 37.183594 467.527344 28.160156 475.035156 C 23.421875 475.390625 18.710938 476.046875 14.0625 476.984375 C 23.21875 469.167969 30.128906 458.816406 33.746094 447.277344 C 34.054688 446.304688 33.019531 445.160156 32.007812 445.535156 C 20.472656 449.8125 10.878906 458.785156 5.777344 469.980469 C 4.328125 473.164062 3.230469 476.480469 2.546875 479.90625 C 0.882812 480.417969 -0.769531 480.964844 -2.414062 481.550781 C -3.121094 481.609375 -3.824219 481.695312 -4.523438 481.808594 C -5.121094 481.902344 -5.433594 482.265625 -5.523438 482.699219 C -5.800781 482.808594 -6.082031 482.914062 -6.359375 483.023438 C -7.125 481.984375 -9.078125 482.632812 -8.898438 484.054688 C -9.644531 484.367188 -10.382812 484.683594 -11.121094 485.007812 C -14.773438 486.621094 -18.347656 488.414062 -21.832031 490.367188 C -12.035156 479.261719 -6.839844 464.378906 -7.742188 449.574219 C -7.800781 448.59375 -8.929688 447.699219 -9.871094 448.351562 C -20.988281 456.082031 -27.777344 469.179688 -28.164062 482.671875 C -28.269531 486.289062 -27.875 489.921875 -27.023438 493.4375 C -28.027344 494.0625 -29.019531 494.703125 -30.003906 495.355469 C -30.359375 495.460938 -30.710938 495.570312 -31.066406 495.6875 C -31.605469 495.871094 -31.902344 496.265625 -32.003906 496.703125 C -33.664062 497.851562 -35.300781 499.035156 -36.90625 500.261719 C -37.578125 500.15625 -38.261719 500.726562 -38.441406 501.441406 C -41.191406 503.601562 -43.855469 505.871094 -46.421875 508.242188 C -41.128906 496.347656 -38.546875 483.277344 -38.957031 470.25 C -39.089844 465.90625 -39.574219 461.578125 -40.359375 457.304688 C -40.535156 456.34375 -41.691406 456.089844 -42.4375 456.457031 C -44.363281 457.40625 -46.023438 458.675781 -47.445312 460.167969 L -47.445312 464.746094 C -46.207031 462.851562 -44.652344 461.199219 -42.769531 459.929688 C -40.566406 473.785156 -41.960938 488.140625 -46.679688 501.351562 C -46.925781 502.035156 -47.179688 502.722656 -47.445312 503.398438 L -47.445312 513.136719 C -44.15625 509.894531 -40.6875 506.832031 -37.0625 503.964844 C -32.71875 508.53125 -26.238281 511.089844 -19.941406 510.457031 C -13.164062 509.773438 -6.988281 505.757812 -3.621094 499.832031 C -3.257812 499.1875 -3.441406 498.253906 -4.128906 497.894531 C -9.789062 494.933594 -16.191406 493.605469 -22.507812 494.015625 C -20.515625 492.84375 -18.484375 491.726562 -16.425781 490.667969 C -13.675781 489.253906 -10.875 487.941406 -8.023438 486.738281 C -5.839844 492.035156 -1.40625 496.308594 4.050781 498.195312 C 10.699219 500.488281 18.273438 498.800781 23.574219 494.285156 C 24.195312 493.753906 24.027344 492.832031 23.574219 492.28125 C 19.328125 487.132812 13.410156 483.65625 7.007812 482.203125 C 7.578125 481.835938 8.144531 481.464844 8.703125 481.082031 C 14.53125 479.585938 20.472656 478.542969 26.464844 478 C 26.910156 478.679688 27.90625 479.046875 28.679688 478.332031 C 28.878906 478.144531 29.085938 477.964844 29.292969 477.78125 C 29.453125 477.773438 29.613281 477.761719 29.769531 477.753906 C 29.886719 477.953125 30.070312 478.136719 30.34375 478.269531 C 41.210938 483.605469 55.328125 479.734375 61.90625 469.554688 C 62.394531 468.792969 61.917969 467.691406 61.058594 467.472656 Z M -36.289062 511.371094 C -40.003906 513.382812 -43.726562 515.394531 -47.445312 517.40625 L -47.445312 520.621094 C -44.230469 518.886719 -41.015625 517.148438 -37.800781 515.410156 C -39.558594 521.722656 -41.773438 528.242188 -46.613281 532.773438 C -46.878906 533.019531 -47.15625 533.261719 -47.445312 533.5 L -47.445312 536.972656 C -42.855469 533.96875 -39.808594 529.136719 -37.726562 524.074219 C -36.242188 520.480469 -35.214844 516.71875 -34.207031 512.972656 C -33.882812 511.753906 -35.210938 510.789062 -36.289062 511.371094 " fill-opacity="1" fill-rule="nonzero"/></g><g clip-path="url(#33d77bdbd8)"><path fill="#42545b" d="M 328.023438 101.957031 C 327.402344 104.730469 326.476562 107.4375 325.25 110.003906 C 316.683594 99.191406 314.441406 83.925781 319.664062 71.113281 C 319.746094 70.914062 319.78125 70.730469 319.777344 70.554688 C 320.171875 70.113281 320.570312 69.675781 320.96875 69.238281 C 327.953125 78.386719 330.554688 90.726562 328.023438 101.957031 Z M 308.785156 130.433594 C 308.078125 133.09375 307.023438 135.621094 305.632812 137.976562 C 298.152344 128.089844 295.214844 114.921875 298.011719 102.804688 C 298.089844 102.46875 298.054688 102.160156 297.945312 101.898438 C 298.570312 100.71875 299.210938 99.550781 299.863281 98.386719 C 308.476562 106.257812 311.753906 119.269531 308.785156 130.433594 Z M 286.707031 148.410156 C 284.585938 156.078125 282.378906 163.722656 280.199219 171.371094 C 274.875 160.363281 274.476562 147.242188 278.90625 135.824219 C 280.253906 132.359375 282.054688 129.117188 284.257812 126.128906 C 284.441406 126.300781 284.613281 126.476562 284.777344 126.65625 C 284.890625 126.921875 285.089844 127.140625 285.332031 127.296875 C 290.128906 133.167969 288.59375 141.585938 286.707031 148.410156 Z M 269.523438 109.070312 C 266.738281 110.253906 263.890625 111.253906 260.984375 112.082031 C 267.644531 98.644531 276.816406 83.175781 293.5625 82.9375 C 296.140625 82.902344 298.65625 83.308594 301 84.210938 C 292.976562 95.140625 282.007812 103.769531 269.523438 109.070312 Z M 311.953125 45.695312 C 316.011719 44.621094 320.335938 43.460938 324.566406 43.972656 C 328.496094 44.445312 332.449219 47.046875 332.804688 51.269531 C 332.898438 52.371094 333.960938 52.589844 334.746094 52.191406 L 334.746094 47.667969 C 333.566406 45.21875 331.324219 43.304688 328.824219 42.195312 C 324.554688 40.296875 319.574219 41.019531 315.167969 42 C 306.242188 43.992188 297.558594 47.183594 289.457031 51.425781 C 284.898438 53.8125 280.527344 56.546875 276.363281 59.566406 C 275.546875 60.15625 275.808594 61.734375 276.816406 61.972656 C 291.664062 65.449219 307.378906 64.90625 321.925781 60.28125 C 323.992188 59.621094 326.03125 58.890625 328.039062 58.082031 C 325.613281 60.339844 323.253906 62.679688 320.972656 65.085938 C 319.914062 64.71875 318.691406 65.902344 319.191406 66.988281 C 314.394531 72.214844 309.941406 77.75 305.875 83.550781 C 305.515625 83.316406 305.15625 83.089844 304.789062 82.875 C 304.542969 82.144531 303.652344 81.644531 302.902344 81.929688 C 296.792969 79.253906 289.605469 79.78125 283.386719 82.226562 C 275.074219 85.5 268.972656 92.402344 264.382812 99.84375 C 261.625 104.3125 259.320312 109.039062 257.03125 113.757812 C 256.554688 114.734375 257.667969 115.855469 258.640625 115.621094 C 273.039062 112.128906 286.363281 104.480469 296.628906 93.796875 C 299.136719 91.183594 301.464844 88.402344 303.589844 85.46875 C 303.816406 85.601562 304.042969 85.742188 304.265625 85.886719 C 296.933594 96.738281 290.910156 108.492188 286.4375 120.796875 C 286.070312 121.8125 285.71875 122.824219 285.371094 123.84375 C 284.96875 123.847656 284.585938 124.015625 284.300781 124.277344 C 283.742188 123.683594 282.683594 123.496094 282.050781 124.347656 C 273.585938 135.707031 270.957031 151.023438 274.664062 164.652344 C 275.71875 168.539062 277.273438 172.277344 279.328125 175.738281 C 279.902344 176.703125 281.574219 176.851562 281.933594 175.589844 C 284.582031 166.269531 287.414062 156.980469 289.847656 147.601562 C 291.707031 140.433594 292.578125 131.828125 287.722656 125.738281 C 289.597656 120.128906 291.785156 114.632812 294.277344 109.277344 C 293.578125 120.785156 297.242188 132.414062 304.699219 141.351562 C 305.285156 142.050781 306.425781 141.960938 306.933594 141.222656 C 314.320312 130.410156 314.445312 115.460938 308.003906 104.171875 C 306.222656 101.050781 303.96875 98.289062 301.296875 95.898438 C 302.667969 93.558594 304.105469 91.25 305.597656 88.984375 C 308.558594 84.492188 311.746094 80.15625 315.140625 75.988281 C 312.851562 85.683594 314.152344 96.1875 318.699219 105.0625 C 320.253906 108.09375 322.195312 110.929688 324.460938 113.476562 C 325.019531 114.097656 326.25 114.167969 326.699219 113.347656 C 333.125 101.636719 333.371094 87.09375 327.761719 75.011719 C 326.460938 72.210938 324.828125 69.566406 322.921875 67.136719 C 326.132812 63.75 329.492188 60.496094 333 57.402344 C 333.578125 56.890625 334.15625 56.390625 334.746094 55.890625 L 334.746094 52.191406 C 334.453125 52.429688 334.164062 52.675781 333.875 52.917969 C 333.53125 52.730469 333.101562 52.695312 332.644531 52.921875 C 319.535156 59.40625 304.757812 62.265625 290.175781 61.191406 C 287.007812 60.957031 283.855469 60.542969 280.738281 59.9375 C 286.75 55.855469 293.203125 52.417969 299.941406 49.691406 C 303.859375 48.105469 307.867188 46.773438 311.953125 45.695312 Z M 334.746094 9.113281 C 329.855469 10.535156 325.191406 12.601562 320.550781 14.671875 C 319.421875 15.175781 319.589844 16.875 320.703125 17.273438 L 334.746094 22.316406 L 334.746094 19.308594 C 331.488281 18.136719 328.230469 16.96875 324.976562 15.800781 C 328.164062 14.402344 331.414062 13.054688 334.746094 12.03125 L 334.746094 9.113281 " fill-opacity="1" fill-rule="nonzero"/></g><g clip-path="url(#49bdbee53a)"><path fill="#fffbf7" d="M 116.058594 0.539062 C 113.382812 13.238281 108.09375 25.386719 100.457031 35.941406 C 88.597656 52.328125 71.941406 64.375 53.972656 73.304688 C 35.265625 82.597656 15.203125 88.851562 -4.890625 94.359375 C -16.953125 97.671875 -29.066406 101.035156 -41.367188 103.34375 C -43.382812 103.71875 -45.410156 104.070312 -47.445312 104.378906 L -47.445312 101.757812 C -41.804688 100.890625 -36.203125 99.710938 -30.664062 98.390625 C -19.613281 95.761719 -8.625 92.785156 2.292969 89.652344 C 21.824219 84.050781 41.289062 77.492188 59.152344 67.671875 C 76.25 58.273438 91.71875 45.621094 102.0625 28.882812 C 107.453125 20.164062 111.269531 10.53125 113.414062 0.539062 L 116.058594 0.539062 " fill-opacity="1" fill-rule="nonzero"/></g><g clip-path="url(#2d41f33d9e)"><path fill="#fffbf7" d="M 99.367188 0.539062 C 98.40625 3.011719 97.335938 5.4375 96.167969 7.789062 C 87.03125 26.226562 71.53125 40.632812 55.167969 52.675781 C 46.722656 58.890625 37.902344 64.574219 29.039062 70.167969 C 19.742188 76.039062 10.328125 81.773438 0.460938 86.65625 C -14.480469 94.046875 -30.761719 99.527344 -47.445312 99.710938 L -47.445312 97.140625 C -28.175781 96.988281 -9.722656 89.480469 6.96875 80.332031 C 16.21875 75.261719 25.152344 69.621094 34.023438 63.921875 C 42.558594 58.445312 51.007812 52.792969 58.996094 46.542969 C 74.539062 34.378906 88.78125 19.621094 96.363281 1.109375 C 96.441406 0.921875 96.519531 0.730469 96.59375 0.539062 L 99.367188 0.539062 " fill-opacity="1" fill-rule="nonzero"/></g><g clip-path="url(#8fe7fa80a3)"><path fill="#fffbf7" d="M 78.703125 0.539062 C 77.203125 2.808594 75.617188 5.011719 73.964844 7.144531 C 61.953125 22.667969 46.230469 34.8125 30.320312 46.078125 C 22.273438 51.78125 14.179688 57.453125 5.914062 62.84375 C -2.222656 68.148438 -10.628906 73.125 -19.542969 77.007812 C -28.011719 80.703125 -36.972656 83.496094 -46.195312 84.402344 C -46.609375 84.441406 -47.027344 84.480469 -47.445312 84.515625 L -47.445312 81.855469 C -35.269531 80.832031 -23.425781 76.460938 -12.574219 70.796875 C -4.164062 66.40625 3.8125 61.234375 11.644531 55.898438 C 19.480469 50.558594 27.289062 45.164062 34.941406 39.578125 C 50.117188 28.5 64.898438 16.160156 75.589844 0.539062 L 78.703125 0.539062 " fill-opacity="1" fill-rule="nonzero"/></g><g clip-path="url(#b92653cf7b)"><path fill="#fffbf7" d="M 56.296875 0.539062 C 49.371094 12.640625 39.492188 23.035156 28.449219 31.460938 C 17.09375 40.132812 4.117188 46.710938 -9.597656 50.726562 C -21.851562 54.3125 -34.699219 55.773438 -47.445312 55.125 L -47.445312 52.53125 C -33.285156 53.253906 -19.074219 51.320312 -5.640625 46.753906 C 7.507812 42.285156 19.859375 35.371094 30.546875 26.503906 C 39.410156 19.148438 47.363281 10.453125 53.289062 0.539062 L 56.296875 0.539062 " fill-opacity="1" fill-rule="nonzero"/></g><g clip-path="url(#b371318ba0)"><path fill="#fffbf7" d="M 35.792969 0.539062 C 24.875 16.601562 8.253906 28.464844 -10.871094 32.625 C -22.890625 35.238281 -35.519531 34.984375 -47.445312 31.988281 L -47.445312 29.316406 C -44.898438 29.984375 -42.316406 30.519531 -39.707031 30.925781 C -18.691406 34.207031 3.195312 28.609375 19.5 14.828125 C 24.453125 10.640625 28.871094 5.824219 32.632812 0.539062 L 35.792969 0.539062 " fill-opacity="1" fill-rule="nonzero"/></g><g clip-path="url(#71428c0d30)"><path fill="#fffbf7" d="M 11.128906 0.539062 C 8.636719 3.964844 5.734375 7.085938 2.503906 9.816406 C -7.4375 18.230469 -20.230469 22.96875 -33.292969 22.46875 C -38.101562 22.28125 -42.871094 21.445312 -47.445312 20 L -47.445312 17.285156 C -36.042969 21.035156 -23.558594 20.769531 -12.449219 16.058594 C -4.496094 12.683594 2.53125 7.296875 7.851562 0.539062 L 11.128906 0.539062 " fill-opacity="1" fill-rule="nonzero"/></g><g clip-path="url(#7ef7f5a6f8)"><path fill="#fffbf7" d="M 279.597656 545.222656 C 277.371094 557.78125 277.386719 571.183594 282.652344 583.019531 C 291.191406 602.210938 311.332031 615.960938 332.523438 615.546875 C 333.261719 615.53125 334.007812 615.503906 334.746094 615.453125 L 334.746094 618.058594 C 332.007812 618.226562 329.246094 618.175781 326.496094 617.894531 C 305.109375 615.703125 285.804688 600.367188 278.722656 580.082031 C 274.222656 567.203125 275.148438 553.171875 277.980469 540.046875 C 281.023438 525.976562 286.03125 512.34375 290.503906 498.6875 C 295.195312 484.378906 299.878906 470.070312 304.570312 455.765625 C 308.792969 442.871094 312.949219 429.953125 317.523438 417.175781 C 322.511719 403.226562 328.050781 389.378906 334.746094 376.144531 L 334.746094 381.972656 C 328.007812 395.976562 322.488281 410.589844 317.425781 425.265625 C 308.300781 451.710938 299.875 478.410156 291.167969 504.996094 C 286.828125 518.230469 282.039062 531.46875 279.597656 545.222656 " fill-opacity="1" fill-rule="nonzero"/></g><g clip-path="url(#2a903d822b)"><path fill="#fffbf7" d="M 295.363281 510.757812 C 288.453125 529.101562 282.675781 549.144531 288.25 568.640625 C 290.667969 577.09375 295.253906 584.929688 302.144531 590.496094 C 308.898438 595.949219 317.585938 599.023438 326.25 599.222656 C 329.132812 599.289062 331.980469 599.007812 334.746094 598.421875 L 334.746094 601.082031 C 330.429688 601.90625 325.984375 602.03125 321.570312 601.4375 C 312.757812 600.257812 304.308594 596.351562 297.871094 590.183594 C 291.253906 583.847656 287.050781 575.332031 285.011719 566.46875 C 280.300781 546.003906 286.886719 525.53125 294.207031 506.535156 C 302.554688 484.863281 311.097656 463.261719 319.546875 441.628906 C 324.613281 428.660156 329.679688 415.6875 334.746094 402.71875 L 334.746094 409.8125 C 329.769531 422.554688 324.792969 435.289062 319.820312 448.03125 C 311.65625 468.929688 303.269531 489.761719 295.363281 510.757812 " fill-opacity="1" fill-rule="nonzero"/></g><g clip-path="url(#6c5d9d084d)"><path fill="#fffbf7" d="M 295.851562 546.800781 C 294.777344 553.789062 294.710938 561.414062 297.796875 567.9375 C 303.511719 580.023438 317.960938 583.75 330.242188 581.28125 C 331.777344 580.972656 333.277344 580.578125 334.746094 580.101562 L 334.746094 582.777344 C 331.941406 583.640625 329.039062 584.230469 326.023438 584.472656 C 319.574219 585 312.882812 583.972656 307.089844 581.015625 C 300.996094 577.90625 296.460938 572.566406 294.277344 566.089844 C 291.890625 559.003906 292.378906 551.269531 293.699219 544.027344 C 295.160156 536.011719 297.6875 528.175781 300.148438 520.425781 C 305.390625 503.878906 311.574219 487.632812 318.625 471.777344 C 323.566406 460.671875 328.945312 449.761719 334.746094 439.078125 L 334.746094 444.558594 C 329.085938 455.246094 323.847656 466.152344 319.042969 477.25 C 312.40625 492.570312 306.613281 508.261719 301.679688 524.210938 C 299.386719 531.625 297.03125 539.113281 295.851562 546.800781 " fill-opacity="1" fill-rule="nonzero"/></g><g clip-path="url(#2f235788a8)"><path fill="#fffbf7" d="M -12.6875 655.148438 C -13.046875 655.144531 -13.394531 655.144531 -13.75 655.136719 C -13.878906 655.109375 -14.011719 655.085938 -14.140625 655.050781 C -14.410156 654.984375 -14.671875 654.894531 -14.9375 654.8125 C -15.050781 654.753906 -15.167969 654.699219 -15.277344 654.640625 C -15.421875 654.558594 -15.5625 654.472656 -15.703125 654.382812 C -15.902344 654.195312 -16.257812 653.902344 -16.316406 653.847656 C -16.335938 653.828125 -16.351562 653.816406 -16.371094 653.800781 C -16.371094 653.792969 -16.375 653.789062 -16.378906 653.78125 C -16.429688 653.695312 -16.476562 653.609375 -16.523438 653.523438 C -16.535156 653.464844 -16.558594 653.378906 -16.589844 653.289062 C -16.585938 653.285156 -16.585938 653.285156 -16.585938 653.28125 C -16.5625 653.273438 -16.53125 653.257812 -16.492188 653.238281 C -16.273438 653.34375 -16.035156 653.425781 -15.785156 653.484375 C -15.003906 654.453125 -13.691406 654.996094 -12.382812 655.0625 C -12.484375 655.089844 -12.589844 655.121094 -12.6875 655.148438 Z M 0.136719 646.886719 C -3.527344 646.203125 -7.191406 645.523438 -10.851562 644.839844 C -12.953125 643.550781 -15.703125 643.25 -18.113281 643.792969 C -21.679688 644.59375 -24.90625 647.394531 -25.820312 650.980469 C -26.984375 655.554688 -24.316406 660.046875 -20.558594 662.476562 C -17.046875 664.746094 -12.363281 665.214844 -8.472656 663.734375 C -3.523438 661.859375 0 658.082031 2.957031 653.816406 C 4.605469 651.445312 3.003906 647.417969 0.136719 646.886719 " fill-opacity="1" fill-rule="nonzero"/></g><g clip-path="url(#7c9ec91795)"><path fill="#fffbf7" d="M -9.464844 621.769531 C -9.5625 621.847656 -9.671875 621.9375 -9.769531 622.023438 C -9.773438 622.023438 -9.78125 622.03125 -9.785156 622.035156 C -9.796875 622.039062 -9.808594 622.046875 -9.820312 622.050781 C -9.578125 621.734375 -9.417969 621.679688 -9.464844 621.769531 Z M 0.292969 620.921875 C 0.171875 618.457031 -1.792969 616.085938 -4.425781 616.203125 C -4.574219 616.207031 -4.722656 616.222656 -4.871094 616.242188 C -5.140625 615.480469 -5.414062 614.714844 -5.6875 613.953125 C -6.410156 611.921875 -8.035156 610.558594 -10.234375 610.492188 C -17.390625 610.265625 -22.128906 617.757812 -20.886719 624.308594 C -20.234375 627.746094 -17.515625 630.4375 -14.257812 631.503906 C -11.289062 632.476562 -7.777344 631.8125 -5.132812 630.246094 C -1.886719 628.324219 0.480469 624.789062 0.292969 620.921875 " fill-opacity="1" fill-rule="nonzero"/></g><path fill="#fffbf7" d="M 32.617188 635.765625 C 30.265625 632.53125 26.804688 630.632812 22.753906 630.621094 C 18.695312 630.609375 15.238281 632.515625 12.875 635.738281 C 11.40625 637.734375 12.472656 641.085938 14.566406 642.191406 C 14.980469 642.410156 15.390625 642.5625 15.796875 642.664062 C 15.933594 642.824219 16.082031 642.976562 16.25 643.117188 C 18.917969 645.363281 22.105469 646.226562 25.546875 645.574219 C 28.480469 645.019531 31.15625 643.140625 32.617188 640.53125 C 33.382812 639.164062 33.59375 637.113281 32.617188 635.765625 " fill-opacity="1" fill-rule="nonzero"/><path fill="#fffbf7" d="M 18.804688 612.894531 C 18.503906 611.796875 17.660156 610.613281 16.636719 610.074219 C 15.542969 609.492188 14.214844 609.203125 13.003906 609.597656 C 11.871094 609.960938 10.738281 610.671875 10.183594 611.765625 C 9.707031 612.707031 9.226562 613.648438 8.75 614.585938 C 8.175781 615.71875 7.929688 616.96875 8.273438 618.222656 C 8.578125 619.316406 9.421875 620.503906 10.445312 621.042969 C 11.539062 621.621094 12.867188 621.910156 14.078125 621.519531 C 15.210938 621.152344 16.34375 620.445312 16.898438 619.351562 C 17.375 618.410156 17.855469 617.46875 18.332031 616.527344 C 18.90625 615.394531 19.152344 614.144531 18.804688 612.894531 " fill-opacity="1" fill-rule="nonzero"/><g clip-path="url(#80ffc1ba12)"><path fill="#fffbf7" d="M 4.035156 222.332031 C 2.632812 221.285156 0.835938 221.425781 -0.457031 222.597656 C -1.1875 223.257812 -1.914062 223.914062 -2.640625 224.574219 C -3.078125 224.742188 -3.496094 224.984375 -3.875 225.292969 C -4.691406 225.953125 -5.378906 226.722656 -5.9375 227.566406 C -6.347656 227.972656 -6.617188 228.480469 -6.746094 229.027344 C -8.191406 232.203125 -8.09375 236.0625 -6.488281 239.210938 C -5.394531 241.347656 -1.609375 241.542969 -0.578125 239.210938 C 1.25 235.054688 3.082031 230.898438 4.914062 226.742188 C 5.601562 225.183594 5.5 223.425781 4.035156 222.332031 " fill-opacity="1" fill-rule="nonzero"/></g><g clip-path="url(#d46f5421f7)"><path fill="#fffbf7" d="M 4.292969 251.203125 C 3.820312 250.769531 3.164062 250.445312 2.464844 250.300781 C 1.902344 249.183594 0.824219 248.351562 -0.527344 248.414062 C -2.28125 248.492188 -4.074219 249.921875 -3.949219 251.835938 C -3.851562 253.335938 -3.75 254.835938 -3.652344 256.339844 C -3.558594 257.726562 -2.867188 258.910156 -1.550781 259.46875 C -0.414062 259.941406 1.363281 259.824219 2.1875 258.757812 C 2.890625 257.851562 3.59375 256.949219 4.292969 256.042969 C 4.875 255.292969 5.296875 254.617188 5.296875 253.625 C 5.296875 252.785156 4.921875 251.78125 4.292969 251.203125 " fill-opacity="1" fill-rule="nonzero"/></g></g></g></g></g></svg>